<?xml version="1.0" standalone="no"?>
<!DOCTYPE svg PUBLIC "-//W3C//DTD SVG 1.1//EN" "http://www.w3.org/Graphics/SVG/1.1/DTD/svg11.dtd" >
<svg>
<metadata>
Created by FontForge 20090622 at Wed Sep  5 05:27:42 2018
 By deploy user
Copyright (c) Morice Kastoun, 2009. All rights reserved.
</metadata>
<defs>
<font id="Oceania-Bold" horiz-adv-x="500" >
  <font-face 
    font-family="Oceania"
    font-weight="500"
    font-stretch="normal"
    units-per-em="1000"
    panose-1="2 0 0 0 0 0 0 0 0 0"
    ascent="760"
    descent="-240"
    x-height="538"
    cap-height="751"
    bbox="-93 -220 1195 958"
    underline-thickness="20"
    underline-position="-123"
    unicode-range="U+0020-U+FB02"
  />
<missing-glyph horiz-adv-x="548" 
 />
    <glyph glyph-name=".notdef" horiz-adv-x="548" 
 />
    <glyph glyph-name=".null" horiz-adv-x="0" 
 />
    <glyph glyph-name="nonmarkingreturn" horiz-adv-x="333" 
 />
    <glyph glyph-name="space" unicode=" " horiz-adv-x="240" 
 />
    <glyph glyph-name="exclam" unicode="!" horiz-adv-x="305" 
d="M213 473l-13 -231h-96l-12 231v278h121v-278zM229 66q0 -35 -20 -54t-57 -19q-35 0 -55.5 19t-20.5 54q0 34 20.5 53t55.5 19t56 -18.5t21 -53.5z" />
    <glyph glyph-name="quotedbl" unicode="&#x22;" horiz-adv-x="423" 
d="M178 753l-10 -276h-109l-10 276h129zM374 753l-10 -276h-109l-10 276h129z" />
    <glyph glyph-name="numbersign" unicode="#" horiz-adv-x="586" 
d="M554 542l-21 -118h-92l-31 -177h91l-21 -118h-92l-22 -129h-78l23 129h-106l-23 -129h-77l22 129h-95l21 118h96l31 177h-95l21 118h96l21 119h77l-21 -119h106l22 119h77l-22 -119h92zM364 424h-106l-32 -177h107z" />
    <glyph glyph-name="dollar" unicode="$" horiz-adv-x="604" 
d="M344 410q113 -21 162.5 -87.5t33.5 -160.5q-15 -94 -73 -133t-161 -39q-43 0 -97 14l-31 -95h-50l36 107q-57 14 -97 13q8 76 14 119q43 3 120 -20l59 176q-114 20 -166 85t-30 180q16 81 80 118.5t150 29.5q42 -4 97 -16l33 99h49l-35 -107q40 -5 69 -1q-2 -19 -6.5 -56
t-7.5 -65q-35 -6 -92 10zM190 533q-8 -49 18.5 -76t88.5 -39l59 177l-14 3.5t-16 3.5q-119 25 -136 -69zM409 175q18 96 -103 121l-60 -182q30 -8 46 -10q46 -7 77.5 10.5t39.5 60.5z" />
    <glyph glyph-name="percent" unicode="%" horiz-adv-x="875" 
d="M624 698l-280 -698h-78l280 698h78zM354 496v-30q0 -75 -39 -131t-109 -56h-15v0q-70 0 -108.5 56t-38.5 131v30q0 76 38.5 131.5t108.5 55.5h16q70 0 108.5 -56t38.5 -131zM131 466v-1q1 -42 16 -72.5t47 -30.5h10q32 0 47 30.5t16 72.5v1v31q-1 42 -16 72t-47 32h-10
q-32 -2 -47 -32t-16 -72v-1v-30zM833 209v-30q0 -75 -39 -131t-109 -56h-15v0q-70 0 -108.5 56t-38.5 131v30q0 76 38.5 131.5t108.5 55.5h16q70 0 108.5 -56t38.5 -131zM610 179v-1q1 -42 16 -72.5t47 -30.5h10q32 0 47 30.5t16 72.5v1v31q-1 42 -16 72t-47 32h-10
q-32 -2 -47 -32t-16 -72v-1v-30z" />
    <glyph glyph-name="ampersand" unicode="&#x26;" horiz-adv-x="684" 
d="M248 -10v0q-102 0 -163 70q-50 55 -55 127.5t33 137.5t108 101q-71 91 -71 157q0 78 55.5 126t132.5 48q76 0 130.5 -47t54.5 -124q0 -111 -133 -190l89 -109q2 4 8 20t8.5 22l8.5 20t11 21.5l12.5 18.5t15.5 20t18 17q42 34 93 34q24 0 63 -9v-112q-2 0 -12 2.5t-15.5 3
l-16 1.5t-17.5 0.5t-15.5 -3.5t-15.5 -8q-15 -12 -26 -40q-7 -15 -17.5 -47t-18.5 -49l172 -199h-153l-78 94q-90 -104 -206 -104zM242 339q-38 -15 -62.5 -49t-24.5 -71.5t28 -71.5q27 -30 63.5 -33t70.5 16t59 52q-20 22 -70.5 82.5t-63.5 74.5zM288 651
q-27 1 -46.5 -20.5t-19.5 -48.5q0 -48 45 -98q29 17 43.5 27t27.5 30t13 45q0 26 -18.5 46t-44.5 19v0z" />
    <glyph glyph-name="quotesingle" unicode="'" horiz-adv-x="227" 
d="M178 753l-10 -276h-109l-10 276h129z" />
    <glyph glyph-name="parenleft" unicode="(" horiz-adv-x="359" 
d="M324 -139h-113q-71 95 -108.5 211t-37.5 233q0 116 37 233t109 215h113q-138 -202 -138 -448q0 -239 138 -444z" />
    <glyph glyph-name="parenright" unicode=")" horiz-adv-x="359" 
d="M35 753h113q71 -95 108.5 -211t37.5 -233q0 -116 -37 -233t-109 -215h-113q138 202 138 448q0 239 -138 444z" />
    <glyph glyph-name="asterisk" unicode="*" horiz-adv-x="440" 
d="M391 669l33 -100l-132 -35l88 -103l-87 -62l-73 113l-73 -113l-88 62l89 103l-133 35l33 100l126 -50l-8 134h107l-7 -134z" />
    <glyph glyph-name="plus" unicode="+" horiz-adv-x="530" 
d="M484 212h-165v-200h-108v200h-166v108h166v199h108v-199h165v-108z" />
    <glyph glyph-name="comma" unicode="," horiz-adv-x="285" 
d="M227 34q0 -70 -32.5 -122.5t-108.5 -98.5l-65 73q61 39 77 59t16 50v18h-9q-19 0 -31.5 14.5t-12.5 39.5q0 32 20.5 52t57.5 20q88 0 88 -105z" />
    <glyph glyph-name="hyphen" unicode="-" horiz-adv-x="250" 
d="M227 215h-204v101h204v-101z" />
    <glyph glyph-name="period" unicode="." horiz-adv-x="285" 
d="M220 66q0 -35 -20.5 -54.5t-57.5 -19.5q-36 0 -56.5 19.5t-20.5 54.5t21 54t56 19t56.5 -18.5t21.5 -54.5z" />
    <glyph glyph-name="slash" unicode="/" horiz-adv-x="356" 
d="M400 733l-313 -872h-106l312 872h107z" />
    <glyph glyph-name="zero" unicode="0" horiz-adv-x="666" 
d="M335 -11q-111 0 -192 92.5t-80 227.5v16q0 145 78.5 231t193.5 86q114 0 189.5 -85.5t75.5 -232.5v-15q0 -140 -75 -230t-190 -90zM452 324q0 30 -5 59.5t-17 59.5t-36 48.5t-58 18.5q-45 0 -75.5 -33t-40.5 -72.5t-10 -80.5v-15q0 -44 10.5 -84t39 -71.5t71.5 -31.5
q35 0 60 17t37.5 46.5t18 59.5t5.5 64v15z" />
    <glyph glyph-name="one" unicode="1" horiz-adv-x="464" 
d="M221 643l145 -39v-604h-148v482l-115 -110l-76 97z" />
    <glyph glyph-name="two" unicode="2" horiz-adv-x="589" 
d="M466 311l-185 -183l243 1v-129h-430l-37 119l286 268q28 27 34 58.5t-15 54.5q-23 23 -53.5 21.5t-59.5 -23.5q-53 -41 -97 -87l-94 98q111 119 200 139q51 11 107.5 -0.5t94.5 -44.5q68 -61 67.5 -145t-61.5 -147z" />
    <glyph glyph-name="three" unicode="3" horiz-adv-x="606" 
d="M434 279q46 -27 74.5 -74.5t28.5 -100.5q0 -102 -72.5 -158.5t-174.5 -56.5q-77 0 -147 33t-107 90l95 113q23 -44 67 -73t93 -29q41 0 67.5 24t31.5 62q5 45 -25 75.5t-78 29.5h-91v118h88q39 -1 65.5 25t28.5 64q2 40 -23 67t-66 27q-43 0 -77 -22.5t-75 -65.5l-90 118
q118 103 242 103q96 0 166.5 -58.5t70.5 -147.5q0 -51 -24 -94.5t-68 -68.5z" />
    <glyph glyph-name="four" unicode="4" horiz-adv-x="648" 
d="M608 148v-133h-89v-119h-143v119h-276l-62 143l200 366q23 39 107 123h168q-3 -4 -107 -128q-51 -86 -126 -226t-78 -145h174v209h143v-209h89z" />
    <glyph glyph-name="five" unicode="5" horiz-adv-x="645" 
d="M77 40l130 70q31 -84 119 -84q51 0 81.5 38t29.5 93q-1 56 -27.5 89t-76.5 33q-66 0 -107 -70l-134 32v404h456l-36 -131h-273v-184q38 42 71 60t82 18q91 0 144.5 -74.5t53.5 -185.5q0 -107 -73.5 -178.5t-186.5 -71.5q-169 0 -253 142z" />
    <glyph glyph-name="six" unicode="6" horiz-adv-x="649" 
d="M59 271v176q0 202 133 281q73 39 172.5 33.5t155.5 -43.5l-49 -126v0h-1q-68 47 -120 46q-63 -2 -104 -40t-37 -102v-54q19 23 34.5 37t46.5 27.5t69 13.5q113 2 170.5 -73.5t58.5 -190.5q1 -117 -69 -192t-194 -75q-127 0 -196.5 77.5t-69.5 204.5zM207 254
q0 -70 31.5 -105t86.5 -35t86 35t31 105q0 67 -31.5 104.5t-85.5 37.5t-86 -38t-32 -104z" />
    <glyph glyph-name="seven" unicode="7" horiz-adv-x="610" 
d="M216 643h331l42 -106l-309 -636h-167l311 609h-204q-19 0 -39 -48l-23 -50l-129 55l36 66.5t29 54.5q17 34 42.5 45t79.5 10z" />
    <glyph glyph-name="eight" unicode="8" horiz-adv-x="682" 
d="M527 394q45 -34 70 -71t25 -100q0 -103 -83.5 -166.5t-192.5 -63.5q-111 0 -194.5 63t-83.5 168q0 64 21 99t68 71q-68 62 -68 157q0 90 73 148.5t184 58.5t181.5 -59t70.5 -148q0 -93 -71 -157zM233 536q0 -42 27 -66.5t74 -24.5h20q44 0 71 24.5t27 65.5q0 45 -28.5 70
t-79.5 25q-53 0 -82 -25t-29 -69zM469 225q0 45 -31.5 73.5t-80.5 28.5h-27q-50 0 -80 -28.5t-30 -72.5q0 -45 33 -72.5t91 -27.5q60 0 92.5 27t32.5 72z" />
    <glyph glyph-name="nine" unicode="9" horiz-adv-x="647" 
d="M588 389v-176q0 -202 -133 -281q-73 -39 -172.5 -33.5t-155.5 43.5l49 126v0h1q68 -47 120 -46q63 2 104 40t37 102v54q-19 -23 -34.5 -37t-46.5 -27.5t-69 -13.5q-113 -2 -170.5 73.5t-58.5 190.5q-1 117 69 192t194 75q127 0 196.5 -77.5t69.5 -204.5zM440 406
q0 70 -31.5 105t-86.5 35t-86 -35t-31 -105q0 -67 31.5 -104.5t85.5 -37.5t86 38t32 104z" />
    <glyph glyph-name="colon" unicode=":" horiz-adv-x="285" 
d="M220 456q0 -35 -20.5 -54.5t-57.5 -19.5q-36 0 -56.5 19.5t-20.5 54.5t21 54t56 19t56.5 -18.5t21.5 -54.5zM220 66q0 -35 -20.5 -54.5t-57.5 -19.5q-36 0 -56.5 19.5t-20.5 54.5t21 54t56 19t56.5 -18.5t21.5 -54.5z" />
    <glyph glyph-name="semicolon" unicode=";" horiz-adv-x="285" 
d="M227 34q0 -70 -32.5 -122.5t-108.5 -98.5l-65 73q61 39 77 59t16 50v18h-9q-19 0 -31.5 14.5t-12.5 39.5q0 32 20.5 52t57.5 20q88 0 88 -105zM220 456q0 -35 -20.5 -54.5t-57.5 -19.5q-36 0 -56.5 19.5t-20.5 54.5t21 54t56 19t56.5 -18.5t21.5 -54.5z" />
    <glyph glyph-name="less" unicode="&#x3c;" horiz-adv-x="530" 
d="M450 0h-133l-238 266l238 265h133v-12l-228 -251l228 -256v-12z" />
    <glyph glyph-name="equal" unicode="=" horiz-adv-x="530" 
d="M467 92h-404v105h404v-105zM467 338h-404v106h404v-106z" />
    <glyph glyph-name="greater" unicode="&#x3e;" horiz-adv-x="530" 
d="M79 531h134l237 -265l-237 -266h-134v12l228 252l-228 255v12z" />
    <glyph glyph-name="question" unicode="?" horiz-adv-x="462" 
d="M421 586q0 -42 -18 -75.5t-43.5 -54.5t-50.5 -39t-44 -38.5t-20 -42.5l-6 -94h-112l-2 117v6q0 38 25 70t55 50.5t56.5 41t28.5 41.5q1 3 1 10q0 29 -20 47.5t-52 18.5q-31 0 -63 -21t-53 -53l-55 111q75 76 189 76q83 0 133.5 -47t50.5 -124zM263 68q0 -34 -22 -54.5
t-59 -20.5q-35 0 -57 20.5t-22 54.5q0 35 22.5 55t57.5 20t57.5 -19.5t22.5 -55.5z" />
    <glyph glyph-name="at" unicode="@" horiz-adv-x="936" 
d="M884 390q0 -77 -22.5 -138t-59 -97t-78 -55t-83.5 -19q-85 0 -113 54h-5q-80 -54 -130 -54q-58 0 -92 36.5t-34 110.5q0 124 57 203t141 79q63 0 110 -31l5 24h104l-53 -299q-2 -12 -2 -19q0 -25 31 -25q51 0 92 58.5t41 171.5q0 270 -292 270q-162 0 -259 -109t-97 -305
q0 -158 68.5 -234t211.5 -76q80 0 164 31l9 -85q-89 -29 -180 -29q-181 0 -274 99t-93 294q0 235 125 366t325 131q177 0 280 -90t103 -263zM525 196l39 217q-39 21 -74 21q-46 0 -79 -57.5t-33 -141.5q0 -71 58 -71q33 0 89 32z" />
    <glyph glyph-name="A" unicode="A" horiz-adv-x="683" 
d="M265 751h155l252 -751h-156q-4 10 -22.5 73t-40.5 129h-219l-68 -202h-156zM264 322h156l-71 240l-6 61l-6 -61z" />
    <glyph glyph-name="B" unicode="B" horiz-adv-x="698" 
d="M399 0h-304v751h280q112 0 175 -56t64 -132q1 -117 -85 -177q112 -62 112 -180q0 -91 -63 -148.5t-179 -57.5zM242 126h135q51 0 79 25.5t28 72.5q0 39 -28.5 64t-78.5 25h-135v-187zM242 435h123q45 0 73.5 26.5t28.5 70.5q0 40 -29.5 66t-73.5 26h-122v-189z" />
    <glyph glyph-name="C" unicode="C" horiz-adv-x="638" 
d="M343 -9q-129 4 -209.5 102.5t-75.5 232.5v94q-3 133 77 232t208 103v0q156 8 255 -100v0l-104 -105q-25 25 -37.5 35.5t-39.5 21t-61 10.5q-73 0 -112 -57t-39 -140v-94q2 -90 40.5 -143t116.5 -54q66 0 144 76l104 -105q-53 -54 -122.5 -83.5t-144.5 -25.5z" />
    <glyph glyph-name="D" unicode="D" horiz-adv-x="738" 
d="M96 751h288q134 0 211.5 -96t77.5 -243v-89q0 -135 -78.5 -229t-211.5 -94h-287v751zM244 133h136q72 0 106.5 54t34.5 136v89q-7 105 -37 155.5t-105 50.5h-135v-485z" />
    <glyph glyph-name="E" unicode="E" horiz-adv-x="614" 
d="M570 0h-475v751h467v-133h-319v-176h285v-127h-285v-182h308z" />
    <glyph glyph-name="F" unicode="F" horiz-adv-x="590" 
d="M96 0v751h453v-132h-305v-174h272v-128h-272v-317h-148z" />
    <glyph glyph-name="G" unicode="G" horiz-adv-x="741" 
d="M362 -11q-128 0 -212 91t-84 222v142q1 142 95.5 238.5t226.5 95.5q68 0 135 -21t113 -63v0l-91 -116q-60 61 -158 61q-70 0 -121.5 -54t-51.5 -141v-139q0 -91 44.5 -139.5t117.5 -48.5q65 0 110 41t45 110v38h-140l-23 128h310v-146q0 -130 -81.5 -214.5t-234.5 -84.5z
" />
    <glyph glyph-name="H" unicode="H" horiz-adv-x="769" 
d="M96 0v751h147v0v0v-322h290v322h147v-751h-147v301h-290v-301h-147z" />
    <glyph glyph-name="I" unicode="I" horiz-adv-x="339" 
d="M97 0v751h148v-751h-148z" />
    <glyph glyph-name="J" unicode="J" horiz-adv-x="349" 
d="M26 -170l7 124q75 -26 75 71v726h147v-738q0 -92 -65 -147t-164 -36z" />
    <glyph glyph-name="K" unicode="K" horiz-adv-x="724" 
d="M686 136l3 -129q-47 -24 -106 -10.5t-92 60.5l-159 233q-14 -19 -32.5 -41.5l-30 -37.5t-24.5 -37v-174h-148v751h148v-358q48 57 148 187.5l132 170.5h169l-261 -336l172 -261q18 -23 43 -26t38 8z" />
    <glyph glyph-name="L" unicode="L" horiz-adv-x="596" 
d="M95 0v751v0h147v-620h335l-27 -131h-455z" />
    <glyph glyph-name="M" unicode="M" horiz-adv-x="886" 
d="M809 751v-751h-147v468v64l-8 -64l-138 -378h-140l-137 377l-9 65v-65v-467h-148v751h204l155 -457l5 -65l3 65l158 457h202z" />
    <glyph glyph-name="N" unicode="N" horiz-adv-x="741" 
d="M523 751h147v-751h-134l-284 458l-9 49v-507h-148v751h136l283 -443l9 -47v490z" />
    <glyph glyph-name="O" unicode="O" horiz-adv-x="752" 
d="M374 759q132 0 224.5 -90t92.5 -232v-125q0 -140 -92.5 -231t-224.5 -91t-224 91t-92 231v125q0 142 92 232t224 90zM541 308v134q0 84 -49 135.5t-119 51.5t-119 -51.5t-49 -135.5v-134q0 -83 49 -135t119 -52t119 52t49 135z" />
    <glyph glyph-name="P" unicode="P" horiz-adv-x="680" 
d="M96 0v752h294q106 0 176 -72.5t70 -174.5q0 -110 -69 -187.5t-177 -77.5h-146v-240h-148zM367 373q52 0 86 37.5t34 92.5q0 48 -33 83.5t-80 35.5h-130v-249h123z" />
    <glyph glyph-name="Q" unicode="Q" horiz-adv-x="744" 
d="M691 310q0 -76 -34.5 -148t-92.5 -114q-26 -19 -56 -30q24 -11 53.5 -32.5t40.5 -28.5t29.5 -7.5t35.5 9.5l2 -108q-45 -16 -82 -10t-65 25q-23 16 -58.5 48.5t-66.5 51.5t-73 26q-113 19 -189.5 107.5t-76.5 210.5v125q0 138 93 230t224 92t223.5 -92.5t92.5 -229.5
v-125zM205 296q0 -77 49.5 -127t118.5 -50q70 0 119.5 50t49.5 127v154q0 79 -49.5 128t-119.5 49t-119 -49t-49 -128v-154z" />
    <glyph glyph-name="R" unicode="R" horiz-adv-x="701" 
d="M647 135v-134q-55 -20 -102.5 -2.5t-84.5 65.5q-15 19 -43 73.5t-54 86t-58 31.5h-62v-255h-147v751h295q107 1 176.5 -73t69.5 -177q0 -133 -115 -205q-20 -12 -32 -17q19 -14 37 -44.5t29.5 -54t35 -38.5t55.5 -7zM243 618v-235h128q54 0 85.5 35t31.5 83
q0 47 -30.5 82t-79.5 35h-135z" />
    <glyph glyph-name="S" unicode="S" horiz-adv-x="654" 
d="M111 220q43 -45 100 -73.5t111 -28.5q104 0 118 72q14 75 -86 107q-103 32 -177 64q-73 31 -103 106.5t2 157.5q29 71 100 104.5t161 28.5q142 -8 247 -87l-72 -128q-38 42 -87 66.5t-97 27.5q-47 2 -79.5 -16t-40.5 -56q-7 -34 10.5 -63t53.5 -42q10 -3 48 -16l64.5 -22
t60 -22.5t54.5 -24.5q68 -36 90.5 -98.5t-0.5 -130.5q-22 -72 -93 -112.5t-159 -40.5q-84 0 -157 24t-120 63z" />
    <glyph glyph-name="T" unicode="T" horiz-adv-x="610" 
d="M226 0v618h-196v133h549v-133h-206v-618h-147z" />
    <glyph glyph-name="U" unicode="U" horiz-adv-x="757" 
d="M532 751h150v-449q0 -136 -86 -224t-216 -88t-216 88t-86 224v449h148v-464q0 -71 43 -119.5t110 -48.5t110 48.5t43 119.5v464z" />
    <glyph glyph-name="V" unicode="V" horiz-adv-x="683" 
d="M505 751h154l-214 -751h-194l-230 751h154l167 -560l5 -62l5 62z" />
    <glyph glyph-name="W" unicode="W" horiz-adv-x="996" 
d="M403 0h-186l-199 751l3 1h150l131 -506l6 -82l5 63l109 473h153l119 -480l4 -56l4 75l124 513h152l-185 -752h-186l-101 411l-5 73l-5 -73z" />
    <glyph glyph-name="X" unicode="X" horiz-adv-x="695" 
d="M678 750l-237 -364q105 -162 136 -205q27 -38 47.5 -50t51.5 -9v-122q-121 -41 -196 73q1 -1 -21.5 33.5l-53.5 82.5l-44 68q-4 6 -9 47q-5 -41 -9 -47l-152 -257h-176l250 384l-251 366h180q15 -23 67.5 -110.5t80.5 -129.5q3 -5 8 -39q5 34 8 39l144 241v-1h176z" />
    <glyph glyph-name="Y" unicode="Y" horiz-adv-x="641" 
d="M473 751h161l-221 -435q-18 -36 -18 -87v-229h-150v229q0 51 -18 87l-221 435h161q29 -64 131 -274q20 -40 22 -98q2 58 22 98q102 210 131 274z" />
    <glyph glyph-name="Z" unicode="Z" horiz-adv-x="641" 
d="M597 617l-397 -484h388v-133h-505l-63 132q48 63 197.5 241t201.5 247h-365l1 131h500z" />
    <glyph glyph-name="bracketleft" unicode="[" horiz-adv-x="359" 
d="M334 -139h-240v872h240l-9 -98h-104v-676h104z" />
    <glyph glyph-name="backslash" unicode="\" horiz-adv-x="381" 
d="M400 -139h-107l-312 872h106z" />
    <glyph glyph-name="bracketright" unicode="]" horiz-adv-x="359" 
d="M25 733h240v-872h-240l9 98h104v676h-104z" />
    <glyph glyph-name="asciicircum" unicode="^" horiz-adv-x="530" 
d="M453 487h-107l-83 224l-81 -224h-105v11l102 255h171l103 -255v-11z" />
    <glyph glyph-name="underscore" unicode="_" 
d="M468 -163h-436v91h436v-91z" />
    <glyph glyph-name="grave" unicode="`" 
d="M364 582h-108l-120 151h146l82 -140v-11z" />
    <glyph glyph-name="a" unicode="a" horiz-adv-x="594" 
d="M297 544q99 0 165 -63t66 -161v-320h-133l-4 52q-60 -58 -143 -58q-80 0 -136.5 49.5t-56.5 118.5v15q0 70 56.5 119t136.5 49q82 0 143 -61v53q0 56 -34.5 80.5t-77.5 22.5q-79 -4 -155 -63q-11 28 -22.5 63l-14.5 44q39 20 62 30t64 20t84 10zM303 101q40 0 65 18
t25 53q0 34 -25.5 52t-64.5 18h-20q-40 0 -65 -18t-25 -52q0 -36 25 -53.5t65 -17.5h20z" />
    <glyph glyph-name="b" unicode="b" horiz-adv-x="647" 
d="M222 0h-142v727l147 26v-281q58 68 149 68q79 0 134.5 -57t55.5 -141v-144q0 -85 -55 -141.5t-135 -56.5q-94 0 -149 68zM226 321v-106q0 -49 28 -78t69 -29t68.5 29t27.5 78v106q0 47 -27.5 76.5t-68.5 29.5t-69 -30t-28 -76z" />
    <glyph glyph-name="c" unicode="c" horiz-adv-x="562" 
d="M454 174l75 -91q-76 -86 -200 -86h-4q-104 0 -178 73.5t-74 177.5v45q0 104 74 178t178 74h4q118 0 187 -79l-79 -91q-44 57 -101 57q-48 0 -80.5 -35t-32.5 -95v-68q0 -64 31.5 -96t81.5 -32q63 0 118 68z" />
    <glyph glyph-name="d" unicode="d" horiz-adv-x="637" 
d="M565 0h-142l-5 68q-55 -68 -149 -68q-80 0 -135 56.5t-55 141.5v144q0 84 55.5 141t134.5 57q91 0 149 -68l1 259l146 26v-757zM419 215v106q0 46 -28 76t-69 30t-68.5 -29.5t-27.5 -76.5v-106q0 -49 27.5 -78t68.5 -29t69 29t28 78z" />
    <glyph glyph-name="e" unicode="e" horiz-adv-x="609" 
d="M327 -1h-30q-100 0 -166.5 67.5t-66.5 175.5v42q0 113 66.5 187t182.5 74q97 0 165 -57.5t68 -149.5q0 -53 -38 -83t-107 -30h-191v-15q0 -37 30 -64.5t76 -30.5q63 -4 117.5 18.5t89.5 57.5q1 -30 1 -70v-61q-30 -24 -88.5 -42.5t-108.5 -18.5zM210 332v-13h153
q19 0 28.5 9.5t9.5 22.5q0 35 -26.5 58t-67.5 23q-40 0 -68.5 -28t-28.5 -72z" />
    <glyph glyph-name="f" unicode="f" horiz-adv-x="442" 
d="M256 0h-147l1 435h-74v104h74v11q0 93 47.5 145.5t124.5 60.5q84 9 143 -15l-2 -116q-43 33 -99 22q-69 -12 -69 -94v-14h168l-1 -104h-167q0 -21 1 -435z" />
    <glyph glyph-name="g" unicode="g" horiz-adv-x="617" 
d="M547 539v-501q0 -112 -57.5 -181t-159.5 -69q-118 0 -204 44l17 147q91 -71 168 -71q39 0 64 21t25 63v76l-1 -1q-58 -68 -149 -68q-79 0 -134.5 57t-55.5 141v144q0 85 55 141.5t135 56.5q94 0 149 -68l5 68h143zM303 112q38 0 65.5 27t31.5 69v126q-4 45 -31 71t-66 26
q-41 0 -68.5 -29t-27.5 -78v-106q0 -47 27.5 -76.5t68.5 -29.5z" />
    <glyph glyph-name="h" unicode="h" horiz-adv-x="654" 
d="M391 538q76 0 130.5 -52t54.5 -126v-360h-146v312q0 41 -29 70.5t-69 29.5t-69 -28.5t-30 -69.5v-314h-147v738l147 20v-306q25 39 67 62.5t91 23.5z" />
    <glyph glyph-name="i" unicode="i" horiz-adv-x="320" 
d="M233 0h-147v528l147 20v-548zM160 616h-3q-34 0 -58 23.5t-24 57.5t24 58t58 24h4h2q34 -1 57.5 -25t23.5 -57t-23.5 -56.5t-56.5 -24.5h-4z" />
    <glyph glyph-name="j" unicode="j" horiz-adv-x="340" 
d="M0 -198v118q51 -18 77.5 -1.5t26.5 66.5v542l147 20v-520q0 -116 -44 -171q-28 -36 -82 -52.5t-125 -1.5zM181 616h-4h-3q-34 0 -58 23.5t-24 57.5t24 58t58 24h4h2q34 -1 57.5 -25t23.5 -57t-23.5 -56.5t-56.5 -24.5z" />
    <glyph glyph-name="k" unicode="k" horiz-adv-x="602" 
d="M224 0h-147v738l147 20v-434l192 215h167l-196 -225q56 -91 104 -161q31 -44 88 -29v-123q-60 -22 -115 -0.5t-94 85.5l-80 132l-26.5 -26.5t-39.5 -42.5v-149z" />
    <glyph glyph-name="l" unicode="l" horiz-adv-x="320" 
d="M232 0h-146v736l146 20v-756z" />
    <glyph glyph-name="m" unicode="m" horiz-adv-x="949" 
d="M697 538q75 0 124 -51.5t49 -126.5v-360h-146v315q0 42 -23 69.5t-63 27.5t-63 -26t-25 -68v-318h-146v315q0 42 -23 69.5t-63 27.5t-63 -26.5t-24 -68.5v-317h-147v521l147 20v-89q56 86 146 86q55 0 95.5 -28.5t62.5 -77.5l14 20q57 86 148 86z" />
    <glyph glyph-name="n" unicode="n" horiz-adv-x="655" 
d="M392 538q76 0 130.5 -52t54.5 -126v-360h-146v312q0 41 -29 70.5t-69 29.5t-69 -28.5t-30 -69.5v-2v-312h-147v521l147 20v-89q25 39 67 62.5t91 23.5z" />
    <glyph glyph-name="o" unicode="o" horiz-adv-x="636" 
d="M321 -4q-117 0 -189 73t-72 180v43q0 102 72 177t186 75q116 0 188.5 -74.5t72.5 -178.5v-43q0 -106 -71.5 -179t-186.5 -73zM207 237q0 -61 30.5 -93.5t83.5 -32.5q52 0 81.5 33t29.5 93v65q0 56 -31 91.5t-83 35.5q-50 0 -80.5 -35.5t-30.5 -91.5v-65z" />
    <glyph glyph-name="p" unicode="p" horiz-adv-x="630" 
d="M72 -217v734l142 24l5 -66q54 67 149 67q80 0 135 -56t55 -141v-150q0 -84 -55.5 -140.5t-134.5 -56.5q-90 0 -149 67v-262zM218 328v-112q0 -46 28 -76t69 -30t68.5 29.5t27.5 76.5v112q0 49 -27.5 77.5t-68.5 28.5t-69 -28.5t-28 -77.5z" />
    <glyph glyph-name="q" unicode="q" horiz-adv-x="612" 
d="M395 541h142v-716l-147 -37v278q-58 -68 -149 -68q-79 0 -134.5 57t-55.5 141v148q0 85 55 141.5t135 56.5q93 0 149 -69zM391 217v110q0 49 -28 78t-69 29t-68.5 -29t-27.5 -78v-110q0 -47 27.5 -76.5t68.5 -29.5t69 30t28 76z" />
    <glyph glyph-name="r" unicode="r" horiz-adv-x="434" 
d="M77 0v523l146 19v-103q15 42 53.5 72t83.5 30q29 0 48 -10l-14 -135q-23 14 -58 11q-53 -5 -83 -38t-30 -92v-277h-146z" />
    <glyph glyph-name="s" unicode="s" horiz-adv-x="540" 
d="M65 48l2 20q8 86 11 114q107 -65 189 -73q69 -7 79 35q10 43 -50 59q-21 5 -42.5 11l-42 12t-29.5 9q-65 19 -97.5 68t-18.5 120q12 63 67 92.5t137 29.5q98 0 204 -55q-3 -27 -17 -132q-86 59 -161 67q-77 9 -88 -27q-15 -46 53 -65q47 -12 124 -39q50 -18 78 -56.5
t24 -91.5q-6 -79 -64.5 -116t-141.5 -36q-56 0 -110 13.5t-80 26.5z" />
    <glyph glyph-name="t" unicode="t" horiz-adv-x="463" 
d="M404 34q-72 -45 -163 -31q-66 10 -100.5 54.5t-34.5 136.5v244h-86v104h86v157l146 20v-177h164v-104h-163v-215q0 -46 8 -70t31 -31q25 -8 55.5 1t52.5 25q0 -17 1.5 -46l2.5 -48.5t0 -19.5z" />
    <glyph glyph-name="u" unicode="u" horiz-adv-x="625" 
d="M257 0q-76 0 -130.5 52t-54.5 126v360h146v-312q0 -41 29 -70.5t69 -29.5t69 28.5t30 69.5v2v312h147v-538h-139l-8 86q-25 -39 -67 -62.5t-91 -23.5z" />
    <glyph glyph-name="v" unicode="v" horiz-adv-x="554" 
d="M353 0h-151l-179 541h155q7 -22 40.5 -141.5l43.5 -154.5q11 -43 14 -106q3 64 14 105l28 97.5l36.5 125l22.5 74.5h155z" />
    <glyph glyph-name="w" unicode="w" horiz-adv-x="804" 
d="M631 0h-157l-66 269l-6 73l-7 -73l-66 -269h-157l-156 539h152l79 -305q0 -2 10 -88q6 71 11 88l75 305h117l74 -305q4 -15 10 -88q6 70 10 88l82 305h151z" />
    <glyph glyph-name="x" unicode="x" horiz-adv-x="577" 
d="M561 0h-166l-96 166q-2 4 -8 55q-6 -52 -8 -56q-91 -159 -94 -165h-166l174 268l-87 135l-88 136h167l92 -165q5 -7 10 -59q7 54 10 58l93 166h167l-176 -271z" />
    <glyph glyph-name="y" unicode="y" horiz-adv-x="528" 
d="M271 158q5 55 12 81q61 226 86 300h152l-199 -603q-23 -68 -64 -99t-108 -31q-48 0 -93 15l11 122q4 -1 16 -5t19 -5.5t20 -3t26 -0.5q28 1 52 76l-192 535h156q15 -45 91 -301z" />
    <glyph glyph-name="z" unicode="z" horiz-adv-x="555" 
d="M500 0h-416l-33 128q32 40 138.5 151.5t130.5 139.5h-231l-21 120h421v-139q-12 -16 -123.5 -135l-134.5 -145h269v-120z" />
    <glyph glyph-name="braceleft" unicode="{" horiz-adv-x="359" 
d="M316 -41v-98h-75q-178 0 -178 125q0 41 29 82.5t58 76.5t29 59q0 25 -15.5 34.5t-52.5 9.5h-57v98h57q37 0 52.5 10t15.5 34q0 19 -18 45.5t-40 49.5t-40 56.5t-18 65.5q0 126 178 126h75v-98h-79q-31 0 -42.5 -10t-11.5 -31q0 -16 18.5 -39.5t40 -45.5t40 -53.5
t18.5 -59.5q0 -82 -111 -95v-8q111 -12 111 -95q0 -34 -29.5 -73.5t-58.5 -72.5t-29 -52q0 -22 11.5 -31.5t42.5 -9.5h79z" />
    <glyph glyph-name="bar" unicode="|" horiz-adv-x="277" 
d="M188 -220h-99v988h99v-988z" />
    <glyph glyph-name="braceright" unicode="}" horiz-adv-x="359" 
d="M43 635v98h75q178 0 178 -125q0 -41 -29 -82.5t-58 -76.5t-29 -59q0 -25 15.5 -34.5t52.5 -9.5h57v-98h-57q-37 0 -52.5 -10t-15.5 -34q0 -19 18 -45.5t40 -49.5t40 -56.5t18 -65.5q0 -126 -178 -126h-75v98h79q31 0 42.5 10t11.5 31q0 16 -18.5 39.5t-40 45.5t-40 53.5
t-18.5 59.5q0 82 111 95v8q-111 12 -111 95q0 34 29.5 73.5t58.5 72.5t29 52q0 22 -11.5 31.5t-42.5 9.5h-79z" />
    <glyph glyph-name="asciitilde" unicode="~" horiz-adv-x="530" 
d="M469 357v-110q-54 -49 -109 -49q-34 0 -94.5 27t-90.5 27q-57 0 -115 -50v109q47 44 115 44q33 0 93.5 -26.5t91.5 -26.5q29 0 51 12t58 43z" />
    <glyph glyph-name="uni00A0" unicode="&#xa0;" horiz-adv-x="205" 
 />
    <glyph glyph-name="exclamdown" unicode="&#xa1;" horiz-adv-x="304" 
d="M91 77l13 231h96l12 -231v-278h-121v278zM75 484q0 35 20 54t57 19q35 0 55.5 -19t20.5 -54q0 -34 -20.5 -53t-55.5 -19t-56 18.5t-21 53.5z" />
    <glyph glyph-name="cent" unicode="&#xa2;" horiz-adv-x="588" 
d="M471 197l38 -115q-38 -28 -91.5 -44.5t-97.5 -16.5h-8q-34 0 -64 9l-30 -86h-46l36 102q-56 29 -89.5 83t-33.5 118v94q0 93 66.5 159t160.5 66h8q34 0 66 -6l29 83h46l-33 -93q43 -13 73 -33l-35 -109q-38 25 -73 39l-110 -315q15 -5 29 -5h8q28 0 66 17.5t62 35.5z
M210 238q0 -48 35 -83l106 303q-13 3 -28 3h-7q-45 0 -75.5 -33.5t-30.5 -78.5v-111z" />
    <glyph glyph-name="sterling" unicode="&#xa3;" horiz-adv-x="586" 
d="M323 110h33h175v-110h-464v110q31 0 64 3q53 8 71 25q12 11 16 28q3 12 3 24t-1.5 20t-7 20t-8.5 16.5l-12 18t-11 17.5h-110v91h57q-46 81 -46 162q0 104 74.5 163.5t177.5 59.5q62 0 117 -24.5t90 -72.5l-89 -78q-18 29 -52.5 46.5t-66.5 17.5q-60 0 -92.5 -30.5
t-32.5 -81.5q0 -60 65 -162h226l-39 -91h-135q21 -47 21 -86q0 -49 -23 -86z" />
    <glyph glyph-name="currency" unicode="&#xa4;" horiz-adv-x="584" 
d="M527 91l-63 -61l-51 55q-55 -35 -121 -35t-121 35l-51 -55l-63 61l52 54q-40 61 -40 135q0 76 40 137l-52 54l63 61l51 -55q55 35 121 35t121 -35l51 55l63 -61l-52 -54q40 -61 40 -136t-40 -136zM423 281q0 73 -34.5 110t-97.5 37q-62 0 -96 -37t-34 -110t34 -110
t96 -37q63 0 97.5 37t34.5 110z" />
    <glyph glyph-name="yen" unicode="&#xa5;" horiz-adv-x="607" 
d="M596 751q-91 -170 -186 -372h104v-56h-130q-14 -33 -18 -70h148v-56h-150v-197h-126v197h-145v56h144q-3 36 -18 70h-126v56h99l-181 372h141q98 -209 127 -279q14 -33 21 -81q9 48 24 81l127 279h145z" />
    <glyph glyph-name="brokenbar" unicode="&#xa6;" horiz-adv-x="277" 
d="M188 0h-99v301h99v-301zM188 432h-99v301h99v-301z" />
    <glyph glyph-name="section" unicode="&#xa7;" horiz-adv-x="574" 
d="M450 210q50 -47 43 -135q-6 -73 -57.5 -108.5t-136.5 -35.5h-1q-32 0 -91.5 14.5t-112.5 11.5q3 19 6.5 55t6.5 56q41 2 105 -16t94 -16q37 2 52.5 13t15.5 43q0 37 -27.5 53t-94.5 21q-81 6 -133 50.5t-42 134.5q8 59 42 93q-52 45 -42 130q7 63 49.5 101t106.5 42
q48 3 121.5 -14t119.5 -7q-12 -77 -18 -104q-38 -5 -60.5 -2t-61.5 13t-48 11q-38 5 -63.5 -6t-29.5 -38q-4 -11 -1 -20t2.5 -16t6.5 -12.5t10 -9t12.5 -7t15.5 -5.5t18 -4t20 -3t22.5 -3t23.5 -3q91 -13 134 -55.5t36 -124.5q-4 -61 -43 -97zM193 347q-4 -34 19 -53.5
t69 -24.5q40 -4 65.5 11t27.5 44q2 25 -18.5 45.5t-66.5 24.5q-90 7 -96 -47z" />
    <glyph glyph-name="dieresis" unicode="&#xa8;" 
d="M212 675q0 -62 -61 -62t-61 62q0 30 16.5 46t44.5 16t44.5 -15.5t16.5 -46.5zM410 675q0 -62 -61 -62q-28 0 -44.5 16t-16.5 46t16.5 46t45.5 16q27 0 43.5 -15.5t16.5 -46.5z" />
    <glyph glyph-name="copyright" unicode="&#xa9;" horiz-adv-x="753" 
d="M708 367q0 -165 -85.5 -260.5t-245.5 -95.5t-246 95.5t-86 260.5q0 167 87.5 262t244.5 95t244 -94t87 -263zM649 367q0 144 -70.5 222t-200.5 78q-272 0 -272 -300q0 -142 67.5 -220.5t204.5 -78.5q136 0 203.5 76.5t67.5 222.5zM384 181q31 0 67.5 11.5t61.5 30.5
l-26 78q-60 -48 -103 -48h-6q-28 0 -49 23t-21 54v76q0 31 21 54t52 23h5q44 0 98 -37l24 75q-49 34 -124 34h-6q-65 0 -110.5 -45.5t-45.5 -109.5v-64q0 -64 45.5 -109.5t110.5 -45.5h6z" />
    <glyph glyph-name="ordfeminine" unicode="&#xaa;" horiz-adv-x="425" 
d="M209 742q69 0 115 -44t46 -112v-222h-93l-2 36q-43 -41 -100 -41q-55 0 -94.5 34.5t-39.5 82.5v11q0 48 39.5 82.5t94.5 34.5t100 -43v37q0 39 -24 56t-54 16q-52 -3 -108 -44q-8 19 -16 43.5l-10 30.5q82 42 146 42zM213 434q28 0 45.5 12.5t17.5 36.5t-17.5 36.5
t-45.5 12.5h-13q-28 0 -45.5 -12.5t-17.5 -36.5q0 -49 63 -49h13z" />
    <glyph glyph-name="guillemotleft" unicode="&#xab;" horiz-adv-x="555" 
d="M287 41h-109l-142 231l142 231h109l-122 -231zM518 41h-107l-143 231l143 231h107l-120 -231z" />
    <glyph glyph-name="logicalnot" unicode="&#xac;" horiz-adv-x="586" 
d="M527 113h-114v170h-355v108h469v-278z" />
    <glyph glyph-name="registered" unicode="&#xae;" horiz-adv-x="455" 
d="M408 553q0 -84 -48.5 -136.5t-131.5 -52.5q-84 0 -132.5 52.5t-48.5 136.5q0 85 49 137.5t132 52.5q81 0 130.5 -51.5t49.5 -138.5zM370 553q0 74 -37.5 115.5t-104.5 41.5q-71 0 -107 -42t-36 -115q0 -71 36.5 -113.5t107.5 -42.5q69 0 105 41.5t36 114.5zM296 498
l1 -35l-3 -2q-4 -1 -12 -1q-10 0 -17 3v0q-9 3 -17 13q-4 5 -15 27q-4 7 -9 17q-5 5 -11 5h-12v-63h-39v185h71q27 0 43 -18q17 -17 17 -43q0 -36 -34 -55q4 -5 10 -16.5t10 -16.5q3 -3 7 -3q3 0 4 1zM201 561h30q9 0 16 7q7 9 7 18q0 10 -6 18q-7 7 -15 7h-32v-50z" />
    <glyph glyph-name="macron" unicode="&#xaf;" 
d="M383 629h-265v104h265v-104z" />
    <glyph glyph-name="degree" unicode="&#xb0;" horiz-adv-x="401" 
d="M362 603q0 -74 -43.5 -112.5t-118.5 -38.5t-118 38.5t-43 111.5q0 74 43 112.5t117 38.5q77 0 120 -38t43 -112zM270 603q0 74 -70 74q-69 0 -69 -74q0 -76 69 -76q70 0 70 76z" />
    <glyph glyph-name="plusminus" unicode="&#xb1;" horiz-adv-x="530" 
d="M467 98v-98h-404v98h404zM213 129v151h-150v99h150v152h104v-152h150v-99h-150v-151h-104z" />
    <glyph glyph-name="twosuperior" unicode="&#xb2;" horiz-adv-x="431" 
d="M322 728l-124 -123l163 1v-86h-287l-25 79l191 179q18 18 22 39.5t-10 36.5q-15 15 -35.5 14.5t-39.5 -15.5q-40 -33 -65 -59l-62 66q74 79 133 93q34 7 72 -0.5t63 -29.5q45 -41 45 -97t-41 -98z" />
    <glyph glyph-name="threesuperior" unicode="&#xb3;" horiz-adv-x="438" 
d="M302 720q29 -17 47 -47t18 -64q0 -65 -46.5 -101.5t-111.5 -36.5q-49 0 -94.5 21t-68.5 57l61 72q15 -28 43 -46t60 -18q26 0 43 15t20 39q4 29 -16 48.5t-50 18.5h-59v76h57q25 -1 42 16t18 41q2 26 -14 43.5t-43 17.5q-28 0 -49 -14t-48 -42l-58 75q78 66 155 66
q62 0 107 -37.5t45 -94.5q0 -71 -58 -105z" />
    <glyph glyph-name="acute" unicode="&#xb4;" 
d="M364 753l-121 -151h-107v11l81 140h147z" />
    <glyph glyph-name="mu" unicode="&#xb5;" horiz-adv-x="619" 
d="M414 539h123v-533l-91 -12q-31 38 -76 38q-25 0 -54.5 -16.5t-61.5 -16.5q-26 0 -47 15v-232h-122v757h122v-333q0 -57 15.5 -74.5t43.5 -17.5q19 0 43.5 10.5t45.5 10.5q28 0 59 -22v426z" />
    <glyph glyph-name="paragraph" unicode="&#xb6;" horiz-adv-x="560" 
d="M485 -72h-90v645q-28 7 -57 7v-652h-90v292h-29q-96 0 -141.5 48.5t-45.5 167.5q0 121 64.5 178t194.5 57q105 0 194 -20v-723z" />
    <glyph glyph-name="periodcentered" unicode="&#xb7;" horiz-adv-x="285" 
d="M220 267q0 -35 -20.5 -54.5t-57.5 -19.5q-36 0 -56.5 19.5t-20.5 54.5t21 54t56 19t56.5 -18.5t21.5 -54.5z" />
    <glyph glyph-name="cedilla" unicode="&#xb8;" 
d="M354 -133q0 -87 -109 -87q-49 0 -99 10l14 69q45 -13 81 -13q18 0 25 6t7 21q0 17 -12.5 23t-68.5 20l23 96h61l-14 -56q54 -15 73 -34t19 -55z" />
    <glyph glyph-name="onesuperior" unicode="&#xb9;" horiz-adv-x="414" 
d="M191 946l96 -26v-400h-98v319l-76 -73l-51 65z" />
    <glyph glyph-name="ordmasculine" unicode="&#xba;" horiz-adv-x="456" 
d="M227 362q-82 0 -132 50.5t-50 125.5v30q0 71 50 123t129 52q81 0 131.5 -51.5t50.5 -124.5v-30q0 -74 -49.5 -124.5t-129.5 -50.5zM148 530q0 -42 21 -65.5t58 -23.5q35 0 55.5 23.5t20.5 65.5v45q0 39 -21.5 63.5t-57.5 24.5q-34 0 -55 -24.5t-21 -63.5v-45z" />
    <glyph glyph-name="guillemotright" unicode="&#xbb;" horiz-adv-x="555" 
d="M518 272l-142 -231h-108l121 231l-121 231h108zM287 272l-143 -231h-108l121 231l-121 231h108z" />
    <glyph glyph-name="onequarter" unicode="&#xbc;" horiz-adv-x="1023" 
d="M667 733l-265 -733h-81l265 733h81zM209 733l96 -26v-400h-98v319l-76 -73l-51 65zM981 170v-90h-61v-80h-96v80h-186l-42 97l135 247q9 16 72 83h114q-3 -3 -72 -86l-82.5 -148l-55.5 -103h117v142h96v-142h61z" />
    <glyph glyph-name="onehalf" unicode="&#xbd;" horiz-adv-x="1010" 
d="M667 733l-265 -733h-81l265 733h81zM209 733l96 -26v-400h-98v319l-76 -73l-51 65zM898 208l-124 -123l163 1v-86h-287l-25 79l191 179q18 18 22 39.5t-10 36.5q-15 15 -35.5 14.5t-39.5 -15.5q-40 -33 -65 -59l-62 66q74 79 133 93q34 7 72 -0.5t63 -29.5q45 -41 45 -97
t-41 -98z" />
    <glyph glyph-name="threequarters" unicode="&#xbe;" horiz-adv-x="1055" 
d="M690 733l-265 -733h-81l265 733h81zM999 170v-90h-61v-80h-96v80h-186l-42 97l135 247q9 16 72 83h114q-3 -3 -72 -86l-82.5 -148l-55.5 -103h117v142h96v-142h61zM302 506q29 -17 47 -47t18 -64q0 -65 -46.5 -101.5t-111.5 -36.5q-49 0 -94.5 21t-68.5 57l61 72
q15 -28 43 -46t60 -18q26 0 43 15t20 39q4 29 -16 48.5t-50 18.5h-59v76h57q25 -1 42 16t18 41q2 26 -14 43.5t-43 17.5q-28 0 -49 -14t-48 -42l-58 75q78 66 155 66q62 0 107 -37.5t45 -94.5q0 -71 -58 -105z" />
    <glyph glyph-name="questiondown" unicode="&#xbf;" horiz-adv-x="454" 
d="M42 -42q0 42 17.5 75.5t43 54.5t51.5 39t44.5 38.5t19.5 42.5l6 94h102l2 -117q2 -39 -22.5 -72.5t-55 -52.5t-58 -41.5t-29.5 -42.5q-3 -23 6.5 -41.5t29 -27t44 -7t56 17.5t61.5 46l44 -107q-70 -63 -162 -69q-89 -5 -144.5 42t-55.5 128zM192 479q0 34 20.5 53
t57.5 19q35 0 55.5 -19t20.5 -53q0 -35 -21 -53.5t-56 -18.5t-56 18t-21 54z" />
    <glyph glyph-name="Agrave" unicode="&#xc0;" horiz-adv-x="681" 
d="M391 788h-106l-105 117h134l77 -107v-10zM265 751h155l252 -751h-156q-4 10 -22.5 73t-40.5 129h-219l-68 -202h-156zM264 322h156l-71 240l-6 61l-6 -61z" />
    <glyph glyph-name="Aacute" unicode="&#xc1;" horiz-adv-x="679" 
d="M392 788h-106v10l78 107h134zM265 751h155l252 -751h-156q-4 10 -22.5 73t-40.5 129h-219l-68 -202h-156zM264 322h156l-71 240l-6 61l-6 -61z" />
    <glyph glyph-name="Acircumflex" unicode="&#xc2;" horiz-adv-x="683" 
d="M259 905h162l69 -107v-10h-99l-53 80l-52 -80h-96v10zM265 751h155l252 -751h-156q-4 10 -22.5 73t-40.5 129h-219l-68 -202h-156zM264 322h156l-71 240l-6 61l-6 -61z" />
    <glyph glyph-name="Atilde" unicode="&#xc3;" horiz-adv-x="683" 
d="M169 798q8 64 31.5 87t59.5 23q28 0 55 -13l50 -25q14 -7 23 -7q23 0 29 42h84q-7 -61 -30.5 -85.5t-60.5 -24.5q-29 0 -55 13l-50 25q-13 7 -23 7q-23 0 -29 -42h-84zM265 751h155l252 -751h-156q-4 10 -22.5 73t-40.5 129h-219l-68 -202h-156zM264 322h156l-71 240
l-6 61l-6 -61z" />
    <glyph glyph-name="Adieresis" unicode="&#xc4;" horiz-adv-x="683" 
d="M303 851q0 -55 -60 -55q-58 0 -58 55q0 54 59 54t59 -54zM495 851q0 -55 -58 -55q-60 0 -60 55q0 26 16 40t44 14q58 0 58 -54zM265 751h155l252 -751h-156q-4 10 -22.5 73t-40.5 129h-219l-68 -202h-156zM264 322h156l-71 240l-6 61l-6 -61z" />
    <glyph glyph-name="Aring" unicode="&#xc5;" horiz-adv-x="683" 
d="M464 876q0 -83 -121 -83q-120 0 -120 82q0 83 122 83q119 0 119 -82zM387 875q0 38 -44 38q-43 0 -43 -38q0 -37 43 -37q44 0 44 37zM265 751h155l252 -751h-156q-4 10 -22.5 73t-40.5 129h-219l-68 -202h-156zM264 322h156l-71 240l-6 61l-6 -61z" />
    <glyph glyph-name="AE" unicode="&#xc6;" horiz-adv-x="947" 
d="M463 0v270q0 30 2 45h-220l-103 -315h-133l254 751h632v-116h-306v-159q0 -29 11.5 -39t39.5 -10h56.5h70h61.5h30v-111h-233q-36 0 -36 -49v-150h296l14 -117h-436zM346 643l-69 -221h197q-9 25 -11 72v148z" />
    <glyph glyph-name="Ccedilla" unicode="&#xc7;" horiz-adv-x="601" 
d="M328 -44q54 -15 73 -34t19 -55q0 -87 -109 -87q-49 0 -99 10l14 69q45 -13 81 -13q18 0 25 6t7 21q0 17 -12.5 23t-68.5 20l20 82q-100 22 -159.5 112t-59.5 206v118q0 130 76 226t199 97h14q124 -3 222 -74l-68 -108q-77 64 -158 64h-7q-65 0 -107 -60.5t-42 -144.5
v-118q0 -93 36.5 -149.5t112.5 -56.5h13q61 0 166 71l57 -109q-138 -80 -220 -80h-16z" />
    <glyph glyph-name="Egrave" unicode="&#xc8;" horiz-adv-x="611" 
d="M401 788h-106l-105 117h134l77 -107v-10zM96 0h475l-19 133h-308v182h285v127h-285v176h319v133h-467v-751z" />
    <glyph glyph-name="Eacute" unicode="&#xc9;" horiz-adv-x="611" 
d="M355 788h-106v10l78 107h134zM96 0h475l-19 133h-308v182h285v127h-285v176h319v133h-467v-751z" />
    <glyph glyph-name="Ecircumflex" unicode="&#xca;" horiz-adv-x="611" 
d="M249 905h162l69 -107v-10h-99l-53 80l-52 -80h-96v10zM96 0h475l-19 133h-308v182h285v127h-285v176h319v133h-467v-751z" />
    <glyph glyph-name="Edieresis" unicode="&#xcb;" horiz-adv-x="607" 
d="M287 851q0 -55 -60 -55q-58 0 -58 55q0 54 59 54t59 -54zM479 851q0 -55 -58 -55q-60 0 -60 55q0 26 16 40t44 14q58 0 58 -54zM96 0h475l-19 133h-308v182h285v127h-285v176h319v133h-467v-751z" />
    <glyph glyph-name="Igrave" unicode="&#xcc;" horiz-adv-x="339" 
d="M226 788h-106l-105 117h134l77 -107v-10zM242 0v756l-146 -20v-736h146z" />
    <glyph glyph-name="Iacute" unicode="&#xcd;" horiz-adv-x="330" 
d="M218 788h-106v10l78 107h134zM242 0v756l-146 -20v-736h146z" />
    <glyph glyph-name="Icircumflex" unicode="&#xce;" horiz-adv-x="337" 
d="M95 906h157l66 -108v-10h-95l-52 81l-50 -81h-93v10zM242 0v756l-146 -20v-736h146z" />
    <glyph glyph-name="Idieresis" unicode="&#xcf;" horiz-adv-x="334" 
d="M131 841q0 -55 -59 -55q-56 0 -56 55q0 54 57 54q26 0 42 -13.5t16 -40.5zM317 841q0 -55 -57 -55q-58 0 -58 55q0 26 16 40t42 14q57 0 57 -54zM242 0v756l-146 -20v-736h146z" />
    <glyph glyph-name="Eth" unicode="&#xd0;" horiz-adv-x="710" 
d="M372 751q128 -2 202.5 -95.5t74.5 -232.5v-98q0 -142 -74.5 -233t-202.5 -92h-276v336h-80v98h80v317h276zM519 325v98q0 106 -34 159.5t-118 52.5h-145v-201h137v-98h-137v-218h145q85 0 118.5 50.5t33.5 156.5z" />
    <glyph glyph-name="Ntilde" unicode="&#xd1;" horiz-adv-x="751" 
d="M216 797q8 64 31.5 87t59.5 23q28 0 55 -13l50 -25q14 -7 23 -7q23 0 29 42h84q-7 -61 -30.5 -85.5t-60.5 -24.5q-29 0 -55 13l-50 25q-13 7 -23 7q-23 0 -29 -42h-84zM523 751h147v-751h-134l-284 458l-9 49v-507h-148v751h136l283 -443l9 -47v490z" />
    <glyph glyph-name="Ograve" unicode="&#xd2;" horiz-adv-x="748" 
d="M424 788h-106l-105 117h134l77 -107v-10zM374 759q132 0 224.5 -90t92.5 -232v-125q0 -140 -92.5 -231t-224.5 -91t-224 91t-92 231v125q0 142 92 232t224 90zM541 308v134q0 84 -49 135.5t-119 51.5t-119 -51.5t-49 -135.5v-134q0 -83 49 -135t119 -52t119 52t49 135z
" />
    <glyph glyph-name="Oacute" unicode="&#xd3;" horiz-adv-x="746" 
d="M411 788h-106v10l78 107h134zM374 759q132 0 224.5 -90t92.5 -232v-125q0 -140 -92.5 -231t-224.5 -91t-224 91t-92 231v125q0 142 92 232t224 90zM541 308v134q0 84 -49 135.5t-119 51.5t-119 -51.5t-49 -135.5v-134q0 -83 49 -135t119 -52t119 52t49 135z" />
    <glyph glyph-name="Ocircumflex" unicode="&#xd4;" horiz-adv-x="746" 
d="M293 905h162l69 -107v-10h-99l-53 80l-52 -80h-96v10zM374 759q132 0 224.5 -90t92.5 -232v-125q0 -140 -92.5 -231t-224.5 -91t-224 91t-92 231v125q0 142 92 232t224 90zM541 308v134q0 84 -49 135.5t-119 51.5t-119 -51.5t-49 -135.5v-134q0 -83 49 -135t119 -52
t119 52t49 135z" />
    <glyph glyph-name="Otilde" unicode="&#xd5;" horiz-adv-x="715" 
d="M192 798q8 64 31.5 87t59.5 23q28 0 55 -13l50 -25q14 -7 23 -7q23 0 29 42h84q-7 -61 -30.5 -85.5t-60.5 -24.5q-29 0 -55 13l-50 25q-13 7 -23 7q-23 0 -29 -42h-84zM348 -9h27q135 0 212.5 94.5t77.5 249.5v77q0 155 -79 249.5t-210 94.5h-28q-139 0 -214 -97.5
t-75 -246.5v-77q0 -149 75.5 -246.5t213.5 -97.5zM530 345q0 -235 -166 -235q-47 0 -81 19t-53 52.5t-27.5 73.5t-8.5 88v59q0 42 4 75.5t15.5 65t30.5 53t49.5 34.5t71.5 13q84 0 124.5 -67t40.5 -174v-57z" />
    <glyph glyph-name="Odieresis" unicode="&#xd6;" horiz-adv-x="743" 
d="M337 851q0 -55 -60 -55q-58 0 -58 55q0 54 59 54t59 -54zM529 851q0 -55 -58 -55q-60 0 -60 55q0 26 16 40t44 14q58 0 58 -54zM374 759q132 0 224.5 -90t92.5 -232v-125q0 -140 -92.5 -231t-224.5 -91t-224 91t-92 231v125q0 142 92 232t224 90zM541 308v134
q0 84 -49 135.5t-119 51.5t-119 -51.5t-49 -135.5v-134q0 -83 49 -135t119 -52t119 52t49 135z" />
    <glyph glyph-name="multiply" unicode="&#xd7;" horiz-adv-x="530" 
d="M481 126l-74 -73l-142 142l-143 -142l-73 73l142 142l-141 141l74 74l141 -141l141 141l73 -74l-141 -141z" />
    <glyph glyph-name="Oslash" unicode="&#xd8;" horiz-adv-x="726" 
d="M578 671q87 -95 87 -259v-77q0 -155 -77.5 -249.5t-212.5 -94.5h-27q-101 0 -171 56l-65 -101h-49l83 129q-87 96 -87 260v77q0 149 75 246.5t214 97.5h28q99 0 171 -56l65 101h50zM194 343q0 -91 29 -148l255 397q-41 51 -113 51q-41 0 -71.5 -13t-49.5 -34.5t-30.5 -53
t-15.5 -65t-4 -75.5v-59zM530 345v57q0 94 -28 151l-254 -396q44 -47 116 -47q166 0 166 235z" />
    <glyph glyph-name="Ugrave" unicode="&#xd9;" horiz-adv-x="769" 
d="M453 788h-106l-105 117h134l77 -107v-10zM545 751h150v-449q0 -136 -86 -224t-216 -88t-216 88t-86 224v449h148v-464q0 -71 43 -119.5t110 -48.5t110 48.5t43 119.5v464z" />
    <glyph glyph-name="Uacute" unicode="&#xda;" horiz-adv-x="779" 
d="M423 788h-106v10l78 107h134zM545 751h150v-449q0 -136 -86 -224t-216 -88t-216 88t-86 224v449h148v-464q0 -71 43 -119.5t110 -48.5t110 48.5t43 119.5v464z" />
    <glyph glyph-name="Ucircumflex" unicode="&#xdb;" horiz-adv-x="771" 
d="M312 905h162l69 -107v-10h-99l-53 80l-52 -80h-96v10zM545 751h150v-449q0 -136 -86 -224t-216 -88t-216 88t-86 224v449h148v-464q0 -71 43 -119.5t110 -48.5t110 48.5t43 119.5v464z" />
    <glyph glyph-name="Udieresis" unicode="&#xdc;" horiz-adv-x="764" 
d="M356 851q0 -55 -60 -55q-58 0 -58 55q0 54 59 54t59 -54zM548 851q0 -55 -58 -55q-60 0 -60 55q0 26 16 40t44 14q58 0 58 -54zM545 751h150v-449q0 -136 -86 -224t-216 -88t-216 88t-86 224v449h148v-464q0 -71 43 -119.5t110 -48.5t110 48.5t43 119.5v464z" />
    <glyph glyph-name="Yacute" unicode="&#xdd;" horiz-adv-x="643" 
d="M362 768h-106v10l78 107h134zM473 751h161l-221 -435q-18 -36 -18 -87v-229h-150v229q0 51 -18 87l-221 435h161q29 -64 131 -274q20 -40 22 -98q2 58 22 98q102 210 131 274z" />
    <glyph glyph-name="Thorn" unicode="&#xde;" horiz-adv-x="637" 
d="M585 376q0 -126 -73 -184.5t-190 -58.5h-89v-133h-137v733h137v-126h99q253 0 253 -231zM442 375q0 69 -29.5 95.5t-81.5 26.5h-98v-252h91q56 0 87 28t31 102z" />
    <glyph glyph-name="germandbls" unicode="&#xdf;" horiz-adv-x="584" 
d="M548 144q0 -74 -43.5 -114t-119.5 -40q-54 0 -134 26l20 103q77 -29 106 -29q53 0 53 54q0 22 -27 46t-59.5 43.5t-59.5 54.5t-27 77q0 36 20 72t44.5 60t44.5 53.5t20 54.5q0 36 -19.5 52t-71.5 16q-55 0 -76 -19.5t-21 -72.5v-581h-121v578q0 100 49.5 150t174.5 50
q205 0 205 -160q0 -36 -20.5 -72.5t-45.5 -60.5t-45.5 -52.5t-20.5 -51.5q0 -20 18 -39.5t43.5 -37.5t51 -39t43.5 -52.5t18 -68.5z" />
    <glyph glyph-name="agrave" unicode="&#xe0;" horiz-adv-x="574" 
d="M361 582h-108l-120 151h146l82 -140v-11zM292 544q99 0 165 -63t66 -161v-320h-133l-4 52q-58 -56 -143 -56q-80 0 -136.5 49.5t-56.5 118.5v25q0 70 56.5 119t136.5 49q87 0 143 -56v36q0 56 -34.5 80.5t-77.5 22.5q-79 -4 -155 -63q-11 28 -22.5 63l-14.5 44
q39 20 62 30t64 20t84 10zM301 101q38 0 62.5 22.5t24.5 58.5q0 35 -25 57.5t-62 22.5h-26q-38 0 -62.5 -22t-24.5 -58q0 -37 24.5 -59t62.5 -22h26z" />
    <glyph glyph-name="aacute" unicode="&#xe1;" horiz-adv-x="573" 
d="M445 733l-121 -151h-107v11l81 140h147zM292 544q99 0 165 -63t66 -161v-320h-133l-4 52q-58 -56 -143 -56q-80 0 -136.5 49.5t-56.5 118.5v25q0 70 56.5 119t136.5 49q87 0 143 -56v36q0 56 -34.5 80.5t-77.5 22.5q-79 -4 -155 -63q-11 28 -22.5 63l-14.5 44
q39 20 62 30t64 20t84 10zM301 101q38 0 62.5 22.5t24.5 58.5q0 35 -25 57.5t-62 22.5h-26q-38 0 -62.5 -22t-24.5 -58q0 -37 24.5 -59t62.5 -22h26z" />
    <glyph glyph-name="acircumflex" unicode="&#xe2;" horiz-adv-x="576" 
d="M465 582h-105l-61 109l-60 -109h-103v10l79 141h171l79 -141v-10zM292 544q99 0 165 -63t66 -161v-320h-133l-4 52q-58 -56 -143 -56q-80 0 -136.5 49.5t-56.5 118.5v25q0 70 56.5 119t136.5 49q87 0 143 -56v36q0 56 -34.5 80.5t-77.5 22.5q-79 -4 -155 -63
q-11 28 -22.5 63l-14.5 44q39 20 62 30t64 20t84 10zM301 101q38 0 62.5 22.5t24.5 58.5q0 35 -25 57.5t-62 22.5h-26q-38 0 -62.5 -22t-24.5 -58q0 -37 24.5 -59t62.5 -22h26z" />
    <glyph glyph-name="atilde" unicode="&#xe3;" horiz-adv-x="583" 
d="M483 715q-8 -78 -33 -108.5t-66 -30.5q-36 0 -66 18l-53 33q-14 9 -28 9q-31 0 -35 -54h-90q8 80 34 109.5t65 29.5q38 0 66 -18l53 -33q15 -9 28 -9q31 0 35 54h90zM292 544q99 0 165 -63t66 -161v-320h-133l-4 52q-58 -56 -143 -56q-80 0 -136.5 49.5t-56.5 118.5v25
q0 70 56.5 119t136.5 49q87 0 143 -56v36q0 56 -34.5 80.5t-77.5 22.5q-79 -4 -155 -63q-11 28 -22.5 63l-14.5 44q39 20 62 30t64 20t84 10zM301 101q38 0 62.5 22.5t24.5 58.5q0 35 -25 57.5t-62 22.5h-26q-38 0 -62.5 -22t-24.5 -58q0 -37 24.5 -59t62.5 -22h26z" />
    <glyph glyph-name="adieresis" unicode="&#xe4;" horiz-adv-x="581" 
d="M258 655q0 -62 -61 -62t-61 62q0 30 16.5 46t44.5 16t44.5 -15.5t16.5 -46.5zM456 655q0 -62 -61 -62q-28 0 -44.5 16t-16.5 46t16.5 46t45.5 16q27 0 43.5 -15.5t16.5 -46.5zM292 544q99 0 165 -63t66 -161v-320h-133l-4 52q-58 -56 -143 -56q-80 0 -136.5 49.5
t-56.5 118.5v25q0 70 56.5 119t136.5 49q87 0 143 -56v36q0 56 -34.5 80.5t-77.5 22.5q-79 -4 -155 -63q-11 28 -22.5 63l-14.5 44q39 20 62 30t64 20t84 10zM301 101q38 0 62.5 22.5t24.5 58.5q0 35 -25 57.5t-62 22.5h-26q-38 0 -62.5 -22t-24.5 -58q0 -37 24.5 -59
t62.5 -22h26z" />
    <glyph glyph-name="aring" unicode="&#xe5;" horiz-adv-x="580" 
d="M417 670q0 -93 -127 -93q-128 0 -128 92q0 93 128 93q127 0 127 -92zM335 669q0 43 -46 43q-45 0 -45 -43q0 -42 45 -42q46 0 46 42zM292 544q99 0 165 -63t66 -161v-320h-133l-4 52q-58 -56 -143 -56q-80 0 -136.5 49.5t-56.5 118.5v25q0 70 56.5 119t136.5 49
q87 0 143 -56v36q0 56 -34.5 80.5t-77.5 22.5q-79 -4 -155 -63q-11 28 -22.5 63l-14.5 44q39 20 62 30t64 20t84 10zM301 101q38 0 62.5 22.5t24.5 58.5q0 35 -25 57.5t-62 22.5h-26q-38 0 -62.5 -22t-24.5 -58q0 -37 24.5 -59t62.5 -22h26z" />
    <glyph glyph-name="ae" unicode="&#xe6;" horiz-adv-x="880" 
d="M600 216q-38 0 -65 -12t-27 -36q0 -37 46 -57q30 -14 75.5 -12t85.5 18q45 17 95 59q-1 -24 -2.5 -72t-1.5 -54q-25 -23 -72.5 -39.5t-81.5 -16.5h-70q-73 0 -136 43q-54 0 -117 -21.5t-123 -21.5q-67 0 -111 45.5t-44 131.5v8q0 68 53 113.5t140 45.5h16
q36 0 69.5 -13.5t51.5 -34.5v18v4v1q0 46 -7 66q-11 25 -35 40.5t-53 15.5q-84 0 -169 -53q-9 38 -18 69t-13 49q35 14 52 20t55.5 13t81.5 7q105 0 168 -65q61 64 150 64h32q86 0 144.5 -50.5t58.5 -129.5v-3q0 -64 -44.5 -102t-131.5 -38h-52zM381 117v36q0 38 -27.5 64
t-65.5 26h-31q-33 0 -57 -16.5t-29 -47.5q-4 -27 7 -49.5t39 -31.5q30 -10 82.5 5.5t81.5 13.5zM505 288q23 23 68 23h66q69 0 69 59q0 27 -21 44t-49 17h-40q-45 0 -69 -28.5t-24 -69.5v-45z" />
    <glyph glyph-name="ccedilla" unicode="&#xe7;" horiz-adv-x="491" 
d="M275 -40q54 -15 73 -34t19 -55q0 -87 -109 -87q-49 0 -99 10l14 69q45 -13 81 -13q18 0 25 6t7 21q0 17 -12 23t-69 20l20 82q-76 17 -125 78.5t-49 140.5v94q0 93 66.5 159t160.5 66h8q52 0 101.5 -14t79.5 -35l-35 -109q-82 53 -143 53h-7q-45 0 -75.5 -33.5
t-30.5 -78.5v-111q0 -45 30 -78t72 -33h8q28 0 66 17.5t62 35.5l23 17l38 -115q-38 -28 -91.5 -44.5t-97.5 -16.5h-2z" />
    <glyph glyph-name="egrave" unicode="&#xe8;" horiz-adv-x="580" 
d="M341 582h-108l-120 151h146l82 -140v-11zM283 -1h30q50 0 107.5 18.5t87.5 42.5v60t-1 71q-36 -36 -89.5 -58t-115.5 -18q-46 3 -75 30.5t-29 64.5v15h202q70 0 104 34q26 26 26 79q0 92 -67 149.5t-164 57.5q-117 0 -182 -69t-65 -181v-53q0 -108 65.5 -175.5
t165.5 -67.5zM198 319v13q0 44 27.5 72t67.5 28q41 0 66 -24t25 -61q0 -28 -43 -28h-143z" />
    <glyph glyph-name="eacute" unicode="&#xe9;" horiz-adv-x="578" 
d="M457 733l-121 -151h-107v11l81 140h147zM283 -1h30q50 0 107.5 18.5t87.5 42.5v60t-1 71q-36 -36 -89.5 -58t-115.5 -18q-46 3 -75 30.5t-29 64.5v15h202q70 0 104 34q26 26 26 79q0 92 -67 149.5t-164 57.5q-117 0 -182 -69t-65 -181v-53q0 -108 65.5 -175.5
t165.5 -67.5zM198 319v13q0 44 27.5 72t67.5 28q41 0 66 -24t25 -61q0 -28 -43 -28h-143z" />
    <glyph glyph-name="ecircumflex" unicode="&#xea;" horiz-adv-x="580" 
d="M462 582h-105l-61 109l-60 -109h-103v10l79 141h171l79 -141v-10zM283 -1h30q50 0 107.5 18.5t87.5 42.5v60t-1 71q-36 -36 -89.5 -58t-115.5 -18q-46 3 -75 30.5t-29 64.5v15h202q70 0 104 34q26 26 26 79q0 92 -67 149.5t-164 57.5q-117 0 -182 -69t-65 -181v-53
q0 -108 65.5 -175.5t165.5 -67.5zM198 319v13q0 44 27.5 72t67.5 28q41 0 66 -24t25 -61q0 -28 -43 -28h-143z" />
    <glyph glyph-name="edieresis" unicode="&#xeb;" horiz-adv-x="580" 
d="M255 655q0 -62 -61 -62t-61 62q0 30 16.5 46t44.5 16t44.5 -15.5t16.5 -46.5zM453 655q0 -62 -61 -62q-28 0 -44.5 16t-16.5 46t16.5 46t45.5 16q27 0 43.5 -15.5t16.5 -46.5zM283 -1h30q50 0 107.5 18.5t87.5 42.5v60t-1 71q-36 -36 -89.5 -58t-115.5 -18
q-46 3 -75 30.5t-29 64.5v15h202q70 0 104 34q26 26 26 79q0 92 -67 149.5t-164 57.5q-117 0 -182 -69t-65 -181v-53q0 -108 65.5 -175.5t165.5 -67.5zM198 319v13q0 44 27.5 72t67.5 28q41 0 66 -24t25 -61q0 -28 -43 -28h-143z" />
    <glyph glyph-name="igrave" unicode="&#xec;" horiz-adv-x="294" 
d="M207 582h-108l-120 151h146l82 -140v-11zM208 0v547l-122 -17v-530h122z" />
    <glyph glyph-name="iacute" unicode="&#xed;" horiz-adv-x="294" 
d="M314 733l-121 -151h-107v11l81 140h147zM208 0v545l-122 -17v-528h122z" />
    <glyph glyph-name="icircumflex" unicode="&#xee;" horiz-adv-x="294" 
d="M293 582h-94l-54 109l-53 -109h-92v10l70 141h153l70 -141v-10zM208 0v547l-122 -17v-530h122z" />
    <glyph glyph-name="idieresis" unicode="&#xef;" horiz-adv-x="294" 
d="M116 655q0 -62 -57 -62q-56 0 -56 62q0 30 15 46t41 16t41.5 -15.5t15.5 -46.5zM291 655q0 -62 -57 -62t-57 62t57 62q26 0 41.5 -15.5t15.5 -46.5zM208 0v547l-122 -17v-530h122z" />
    <glyph glyph-name="eth" unicode="&#xf0;" horiz-adv-x="573" 
d="M522 288q0 -148 -56.5 -223t-180.5 -75q-112 0 -173 67.5t-61 197.5q0 261 233 261q28 0 60 -8q-23 48 -60 103l-72 -41l-37 53l71 41q-17 24 -50 66l116 48q28 -36 40 -53l65 37l37 -53l-65 -38q133 -201 133 -383zM393 285q0 64 -15 121q-45 12 -86 12
q-58 0 -84.5 -35.5t-26.5 -126.5t24.5 -129.5t80.5 -38.5q61 0 84 43.5t23 153.5z" />
    <glyph glyph-name="ntilde" unicode="&#xf1;" horiz-adv-x="635" 
d="M525 715q-8 -78 -33 -108.5t-66 -30.5q-36 0 -66 18l-53 33q-14 9 -28 9q-31 0 -35 -54h-90q8 80 34 109.5t65 29.5q38 0 66 -18l53 -33q15 -9 28 -9q31 0 35 54h90zM391 538q76 0 130.5 -52t54.5 -126v-360h-146v312q0 41 -29 70.5t-69 29.5t-69 -28.5t-30 -69.5v-2
v-312h-147v521l147 20v-89q25 39 67 62.5t91 23.5z" />
    <glyph glyph-name="ograve" unicode="&#xf2;" horiz-adv-x="604" 
d="M354 582h-108l-120 151h146l82 -140v-11zM305 -4q114 0 183.5 73t69.5 179v43q0 104 -70 178.5t-186 74.5q-113 0 -182.5 -74.5t-69.5 -177.5v-43q0 -107 69.5 -180t185.5 -73zM197 237v65q0 57 28 92t77 35q51 0 80 -35t29 -92v-65q0 -60 -27.5 -93t-78.5 -33
q-53 0 -80.5 32.5t-27.5 93.5z" />
    <glyph glyph-name="oacute" unicode="&#xf3;" horiz-adv-x="604" 
d="M472 733l-121 -151h-107v11l81 140h147zM305 -4q114 0 183.5 73t69.5 179v43q0 104 -70 178.5t-186 74.5q-113 0 -182.5 -74.5t-69.5 -177.5v-43q0 -107 69.5 -180t185.5 -73zM197 237v65q0 57 28 92t77 35q51 0 80 -35t29 -92v-65q0 -60 -27.5 -93t-78.5 -33
q-53 0 -80.5 32.5t-27.5 93.5z" />
    <glyph glyph-name="ocircumflex" unicode="&#xf4;" horiz-adv-x="606" 
d="M469 582h-105l-61 109l-60 -109h-103v10l79 141h171l79 -141v-10zM305 -4q114 0 183.5 73t69.5 179v43q0 104 -70 178.5t-186 74.5q-113 0 -182.5 -74.5t-69.5 -177.5v-43q0 -107 69.5 -180t185.5 -73zM197 237v65q0 57 28 92t77 35q51 0 80 -35t29 -92v-65
q0 -60 -27.5 -93t-78.5 -33q-53 0 -80.5 32.5t-27.5 93.5z" />
    <glyph glyph-name="otilde" unicode="&#xf5;" horiz-adv-x="606" 
d="M486 715q-8 -78 -33 -108.5t-66 -30.5q-36 0 -66 18l-53 33q-14 9 -28 9q-31 0 -35 -54h-90q8 80 34 109.5t65 29.5q38 0 66 -18l53 -33q15 -9 28 -9q31 0 35 54h90zM305 -4q114 0 183.5 73t69.5 179v43q0 104 -70 178.5t-186 74.5q-113 0 -182.5 -74.5t-69.5 -177.5v-43
q0 -107 69.5 -180t185.5 -73zM197 237v65q0 57 28 92t77 35q51 0 80 -35t29 -92v-65q0 -60 -27.5 -93t-78.5 -33q-53 0 -80.5 32.5t-27.5 93.5z" />
    <glyph glyph-name="odieresis" unicode="&#xf6;" horiz-adv-x="606" 
d="M266 655q0 -62 -61 -62t-61 62q0 30 16.5 46t44.5 16t44.5 -15.5t16.5 -46.5zM464 655q0 -62 -61 -62q-28 0 -44.5 16t-16.5 46t16.5 46t45.5 16q27 0 43.5 -15.5t16.5 -46.5zM305 -4q114 0 183.5 73t69.5 179v43q0 104 -70 178.5t-186 74.5q-113 0 -182.5 -74.5
t-69.5 -177.5v-43q0 -107 69.5 -180t185.5 -73zM197 237v65q0 57 28 92t77 35q51 0 80 -35t29 -92v-65q0 -60 -27.5 -93t-78.5 -33q-53 0 -80.5 32.5t-27.5 93.5z" />
    <glyph glyph-name="divide" unicode="&#xf7;" horiz-adv-x="593" 
d="M547 291v-47h-498v47h498zM375 81q0 -35 -21 -54.5t-58 -19.5q-35 0 -56 19.5t-21 54.5t21.5 54t56.5 19t56.5 -18.5t21.5 -54.5zM375 453q0 -35 -21 -55t-58 -20q-35 0 -56 20t-21 55q0 34 21.5 53.5t56.5 19.5t56.5 -19t21.5 -54z" />
    <glyph glyph-name="oslash" unicode="&#xf8;" horiz-adv-x="579" 
d="M445 486q81 -68 81 -173v-97q0 -95 -66.5 -160.5t-159.5 -65.5h-23q-62 0 -115 31l-58 -97h-44l72 118q-81 69 -81 175v96q0 95 66.5 160.5t158.5 65.5h24q59 0 114 -31l59 96h44zM173 223q0 -43 20 -80l165 273q-25 21 -58 21h-24q-43 0 -73 -38t-30 -101v-75zM404 223
v75q0 51 -21 87l-164 -272q26 -21 58 -21h23q43 0 73.5 35.5t30.5 95.5z" />
    <glyph glyph-name="ugrave" unicode="&#xf9;" horiz-adv-x="654" 
d="M380 582h-108l-120 151h146l82 -140v-11zM270 0q-76 0 -130.5 52t-54.5 126v360h146v-312q0 -41 29 -70.5t69 -29.5t69 28.5t30 69.5v2v312h147v-535h-139l-8 83q-25 -39 -67 -62.5t-91 -23.5z" />
    <glyph glyph-name="uacute" unicode="&#xfa;" horiz-adv-x="656" 
d="M493 733l-121 -151h-107v11l81 140h147zM270 0q-76 0 -130.5 52t-54.5 126v360h146v-312q0 -41 29 -70.5t69 -29.5t69 28.5t30 69.5v2v312h147v-538h-139l-8 86q-25 -39 -67 -62.5t-91 -23.5z" />
    <glyph glyph-name="ucircumflex" unicode="&#xfb;" horiz-adv-x="654" 
d="M490 582h-105l-61 109l-60 -109h-103v10l79 141h171l79 -141v-10zM270 0q-76 0 -130.5 52t-54.5 126v360h146v-312q0 -41 29 -70.5t69 -29.5t69 28.5t30 69.5v2v312h147v-535h-139l-8 83q-25 -39 -67 -62.5t-91 -23.5z" />
    <glyph glyph-name="udieresis" unicode="&#xfc;" horiz-adv-x="649" 
d="M295 655q0 -62 -61 -62t-61 62q0 30 16.5 46t44.5 16t44.5 -15.5t16.5 -46.5zM493 655q0 -62 -61 -62q-28 0 -44.5 16t-16.5 46t16.5 46t45.5 16q27 0 43.5 -15.5t16.5 -46.5zM270 0q-76 0 -130.5 52t-54.5 126v360h146v-312q0 -41 29 -70.5t69 -29.5t69 28.5t30 69.5v2
v312h147v-535h-139l-8 83q-25 -39 -67 -62.5t-91 -23.5z" />
    <glyph glyph-name="yacute" unicode="&#xfd;" horiz-adv-x="537" 
d="M444 733l-121 -151h-107v11l81 140h147zM277 158q5 55 12 81q61 226 86 300h152l-199 -603q-23 -68 -64 -99t-108 -31q-48 0 -93 15l11 122q4 -1 16 -5t19 -5.5t20 -3t26 -0.5q28 1 52 76l-192 535h156q15 -45 91 -301z" />
    <glyph glyph-name="thorn" unicode="&#xfe;" horiz-adv-x="589" 
d="M328 537q92 0 152.5 -65.5t60.5 -169.5v-87q0 -41 -7.5 -76.5t-25 -68.5t-50.5 -54t-79 -25q-36 -3 -76 13.5t-58 15.5t-28.5 -13.5t-10.5 -32.5v-157l-121 -36v981l121 15v-297q42 57 122 57zM420 189v134q0 49 -27.5 78.5t-73.5 30.5q-55 1 -83.5 -29t-28.5 -82v-222
q3 2 9 5.5t22 8.5t31 4q14 -1 46 -13t49 -9q56 9 56 94z" />
    <glyph glyph-name="ydieresis" unicode="&#xff;" horiz-adv-x="531" 
d="M234 655q0 -62 -61 -62t-61 62q0 30 16.5 46t44.5 16t44.5 -15.5t16.5 -46.5zM432 655q0 -62 -61 -62q-28 0 -44.5 16t-16.5 46t16.5 46t45.5 16q27 0 43.5 -15.5t16.5 -46.5zM271 158q5 55 12 81q61 226 86 300h152l-199 -603q-23 -68 -64 -99t-108 -31q-48 0 -93 15
l11 122q4 -1 16 -5t19 -5.5t20 -3t26 -0.5q28 1 52 76l-192 535h156q15 -45 91 -301z" />
    <glyph glyph-name="dotlessi" unicode="&#x131;" horiz-adv-x="294" 
d="M208 0h-122v531h122v-531z" />
    <glyph glyph-name="Lslash" unicode="&#x141;" horiz-adv-x="559" 
d="M222 114h310l-21 -114h-415v288l-54 -29v105l54 29v358h126v-290l80 43v-105l-80 -43v-242z" />
    <glyph glyph-name="lslash" unicode="&#x142;" horiz-adv-x="294" 
d="M267 504v-105l-54 -32v-367h-127v291l-54 -32v105l54 32v382h127v-306z" />
    <glyph glyph-name="OE" unicode="&#x152;" horiz-adv-x="1007" 
d="M973 -1h-438v40q-69 -47 -160 -47h-27q-138 0 -213.5 97.5t-75.5 246.5v77q0 149 75 246.5t214 97.5h28q90 0 159 -47v40h434v-116h-308v-148q0 -29 11.5 -39t39.5 -10h220v-111h-235q-27 0 -33 -25q-1 -10 -3 -28v-157h298zM533 346v57q0 107 -41 174t-126 67
q-51 0 -86 -19t-53 -53.5t-25.5 -75.5t-7.5 -93v-59q0 -102 40.5 -167.5t130.5 -65.5t129 65.5t39 169.5z" />
    <glyph glyph-name="oe" unicode="&#x153;" horiz-adv-x="890" 
d="M622 214q-38 0 -65 -11.5t-27 -35.5q0 -35 45 -58q31 -14 76.5 -12t85.5 18q51 21 95 59q-1 -24 -2.5 -73t-1.5 -53q-26 -23 -73.5 -39.5t-81.5 -16.5h-69q-91 0 -147 64q-69 -64 -158 -64h-23q-93 0 -159.5 66t-66.5 162v92q0 95 66.5 160.5t158.5 65.5h24q97 0 162 -68
q62 68 154 68h32q86 0 144.5 -50.5t58.5 -130.5v-3q0 -64 -45 -102t-131 -38h-52zM403 226v71q0 65 -30.5 102.5t-73.5 37.5h-24q-42 0 -72.5 -38t-30.5 -102v-71q0 -58 30.5 -95t73.5 -37h23q43 0 73.5 36t30.5 96zM527 286q22 24 68 24h66q69 0 69 58q0 27 -21.5 44.5
t-49.5 17.5h-39q-44 0 -68.5 -29t-24.5 -69v-46z" />
    <glyph glyph-name="Scaron" unicode="&#x160;" horiz-adv-x="642" 
d="M399 788h-162l-69 106v11h99l53 -81l51 81h96v-11zM108 214l-51 -138q47 -38 124.5 -62.5t162.5 -24.5q88 0 159 40.5t93 112.5q23 68 0.5 132.5t-90.5 100.5q-26 14 -72 29.5t-98.5 31t-67.5 20.5q-36 13 -54.5 42.5t-9.5 62.5q17 62 115 57q47 -3 96.5 -26.5
t83.5 -52.5l72 128q-106 80 -242 87q-89 5 -157 -29t-99 -104q-35 -86 -4 -159t105 -105q44 -19 188 -64q50 -16 71 -41t15 -66q-5 -33 -39 -50t-79 -17q-55 0 -116 27t-106 68z" />
    <glyph glyph-name="scaron" unicode="&#x161;" horiz-adv-x="518" 
d="M102 733h106l61 -109l60 109h103v-11l-80 -140h-170l-80 140v11zM56 48q10 -6 28.5 -15t75 -24t112.5 -15q83 -1 141.5 36t64.5 116q4 53 -24 91.5t-78 56.5q-77 27 -124 39q-68 19 -53 65q11 36 88 27q75 -8 161 -67q14 104 17 132q-106 55 -204 55q-82 0 -137 -29.5
t-67 -92.5q-14 -71 18.5 -120t97.5 -68q9 -3 29.5 -9l42 -12t42.5 -11q60 -16 50 -59q-10 -42 -79 -35q-82 8 -189 73q-3 -28 -11 -114z" />
    <glyph glyph-name="Ydieresis" unicode="&#x178;" horiz-adv-x="642" 
d="M284 851q0 -55 -60 -55q-58 0 -58 55q0 54 59 54t59 -54zM476 851q0 -55 -58 -55q-60 0 -60 55q0 26 16 40t44 14q58 0 58 -54zM473 751h161l-221 -435q-18 -36 -18 -87v-229h-150v229q0 51 -18 87l-221 435h161q29 -64 131 -274q20 -40 22 -98q2 58 22 98
q102 210 131 274z" />
    <glyph glyph-name="Zcaron" unicode="&#x17d;" horiz-adv-x="638" 
d="M399 788h-162l-69 106v11h99l53 -81l51 81h96v-11zM605 617l-397 -484h388v-133h-505l-63 132q48 63 197.5 241t201.5 247h-365l1 131h500z" />
    <glyph glyph-name="zcaron" unicode="&#x17e;" horiz-adv-x="525" 
d="M103 733h106l61 -109l60 109h103v-11l-80 -140h-170l-80 140v11zM66 0h416v121q-143 0 -269 -1l134.5 145t123.5 135v139h-421l21 -120h231q-24 -28 -130.5 -139.5t-138.5 -151.5z" />
    <glyph glyph-name="florin" unicode="&#x192;" horiz-adv-x="586" 
d="M498 736l-6 -107q-35 6 -65 6q-40 0 -56.5 -15.5t-16.5 -51.5v-149h144v-104h-144v-261q0 -95 -49 -144t-136 -49q-49 0 -75 7l6 107q34 -6 59 -6q40 0 56.5 15.5t16.5 51.5v279h-132v104h132v131q0 95 49 144t136 49q55 0 81 -7z" />
    <glyph glyph-name="circumflex" unicode="&#x2c6;" 
d="M414 602h-105l-61 109l-60 -109h-103v10l79 141h171l79 -141v-10z" />
    <glyph glyph-name="caron" unicode="&#x2c7;" 
d="M85 753h106l61 -109l60 109h103v-11l-80 -140h-170l-80 140v11z" />
    <glyph glyph-name="breve" unicode="&#x2d8;" 
d="M325 753h86q-12 -85 -52 -121t-110 -36q-71 0 -110.5 36t-51.5 121h88q6 -41 23.5 -58t52.5 -17q34 0 50.5 17t23.5 58z" />
    <glyph glyph-name="dotaccent" unicode="&#x2d9;" 
d="M323 683q0 -33 -19 -51.5t-55 -18.5q-34 0 -53.5 18.5t-19.5 51.5t20 51t54 18q33 0 53 -17.5t20 -51.5z" />
    <glyph glyph-name="ring" unicode="&#x2da;" 
d="M378 690q0 -93 -127 -93q-128 0 -128 92q0 93 128 93q127 0 127 -92zM296 689q0 43 -46 43q-45 0 -45 -43q0 -42 45 -42q46 0 46 42z" />
    <glyph glyph-name="ogonek" unicode="&#x2db;" 
d="M361 28q-81 -58 -104 -84.5t-23 -53.5q0 -39 43 -39q19 0 52 10l12 -67q-43 -14 -85 -14q-119 0 -119 94q0 47 33.5 79.5t137.5 87.5z" />
    <glyph glyph-name="tilde" unicode="&#x2dc;" 
d="M435 735q-8 -78 -33 -108.5t-66 -30.5q-36 0 -66 18l-53 33q-14 9 -28 9q-31 0 -35 -54h-90q8 80 34 109.5t65 29.5q38 0 66 -18l53 -33q15 -9 28 -9q31 0 35 54h90z" />
    <glyph glyph-name="hungarumlaut" unicode="&#x2dd;" 
d="M252 602v11l77 140h134l-114 -151h-97zM51 602v11l77 140h134l-114 -151h-97z" />
    <glyph glyph-name="endash" unicode="&#x2013;" 
d="M468 215h-436v101h436v-101z" />
    <glyph glyph-name="emdash" unicode="&#x2014;" horiz-adv-x="1000" 
d="M968 215h-936v101h936v-101z" />
    <glyph glyph-name="quoteleft" unicode="&#x2018;" horiz-adv-x="244" 
d="M29 602q0 58 29.5 100.5t99.5 79.5l57 -74q-53 -26 -65.5 -40t-12.5 -41v-8h12q21 0 35 -13.5t14 -37.5q0 -31 -21.5 -49.5t-59.5 -18.5q-41 0 -64.5 25.5t-23.5 76.5z" />
    <glyph glyph-name="quoteright" unicode="&#x2019;" horiz-adv-x="244" 
d="M215 678q0 -58 -29.5 -100.5t-99.5 -79.5l-57 74q53 26 65.5 40t12.5 41v8h-12q-21 0 -35 13.5t-14 37.5q0 31 21.5 49.5t59.5 18.5q41 0 64.5 -25.5t23.5 -76.5z" />
    <glyph glyph-name="quotesinglbase" unicode="&#x201a;" horiz-adv-x="244" 
d="M215 37q0 -58 -29.5 -100.5t-99.5 -79.5l-57 74q53 26 65.5 40t12.5 41v8h-12q-21 0 -35 13.5t-14 37.5q0 31 21.5 49.5t59.5 18.5q41 0 64.5 -25.5t23.5 -76.5z" />
    <glyph glyph-name="quotedblleft" unicode="&#x201c;" horiz-adv-x="445" 
d="M230 600q0 58 29.5 100.5t99.5 79.5l57 -74q-53 -26 -65.5 -40t-12.5 -41v-8h12q21 0 35 -13.5t14 -37.5q0 -31 -21.5 -49.5t-59.5 -18.5q-41 0 -64.5 25.5t-23.5 76.5zM29 600q0 58 29.5 100.5t99.5 79.5l57 -74q-53 -26 -65.5 -40t-12.5 -41v-8h12q21 0 35 -13.5
t14 -37.5q0 -31 -21.5 -49.5t-59.5 -18.5q-41 0 -64.5 25.5t-23.5 76.5z" />
    <glyph glyph-name="quotedblright" unicode="&#x201d;" horiz-adv-x="446" 
d="M417 678q0 -58 -29.5 -100.5t-99.5 -79.5l-57 74q53 26 65.5 40t12.5 41v8h-12q-21 0 -35 13.5t-14 37.5q0 31 21.5 49.5t59.5 18.5q41 0 64.5 -25.5t23.5 -76.5zM215 678q0 -58 -29.5 -100.5t-99.5 -79.5l-57 74q53 26 65.5 40t12.5 41v8h-12q-21 0 -35 13.5t-14 37.5
q0 31 21.5 49.5t59.5 18.5q41 0 64.5 -25.5t23.5 -76.5z" />
    <glyph glyph-name="quotedblbase" unicode="&#x201e;" horiz-adv-x="446" 
d="M215 37q0 -58 -29.5 -100.5t-99.5 -79.5l-57 74q53 26 65.5 40t12.5 41v8h-12q-21 0 -35 13.5t-14 37.5q0 31 21.5 49.5t59.5 18.5q41 0 64.5 -25.5t23.5 -76.5zM417 37q0 -58 -29.5 -100.5t-99.5 -79.5l-57 74q53 26 65.5 40t12.5 41v8h-12q-21 0 -35 13.5t-14 37.5
q0 31 21.5 49.5t59.5 18.5q41 0 64.5 -25.5t23.5 -76.5z" />
    <glyph glyph-name="dagger" unicode="&#x2020;" horiz-adv-x="550" 
d="M512 438h-186v-438h-103v438h-186v97h186v198h103v-198h186v-97z" />
    <glyph glyph-name="daggerdbl" unicode="&#x2021;" horiz-adv-x="550" 
d="M512 178h-186v-178h-103v178h-186v97h186v185h-186v97h186v176h103v-176h186v-97h-186v-185h186v-97z" />
    <glyph glyph-name="bullet" unicode="&#x2022;" 
d="M382 133h-264v263h264v-263z" />
    <glyph glyph-name="ellipsis" unicode="&#x2026;" horiz-adv-x="749" 
d="M452 66q0 -35 -20.5 -54.5t-57.5 -19.5q-36 0 -56.5 19.5t-20.5 54.5t21 54t56 19t56.5 -18.5t21.5 -54.5zM684 66q0 -35 -20.5 -54.5t-57.5 -19.5q-36 0 -56.5 19.5t-20.5 54.5t21 54t56 19t56.5 -18.5t21.5 -54.5zM220 66q0 -35 -20.5 -54.5t-57.5 -19.5
q-36 0 -56.5 19.5t-20.5 54.5t21 54t56 19t56.5 -18.5t21.5 -54.5z" />
    <glyph glyph-name="perthousand" unicode="&#x2030;" horiz-adv-x="1237" 
d="M624 698l-280 -698h-78l280 698h78zM354 496v-30q0 -75 -39 -131t-109 -56h-15v0q-70 0 -108.5 56t-38.5 131v30q0 76 38.5 131.5t108.5 55.5h16q70 0 108.5 -56t38.5 -131zM131 466v-1q1 -42 16 -72.5t47 -30.5h10q32 0 47 30.5t16 72.5v1v31q-1 42 -16 72t-47 32h-10
q-32 -2 -47 -32t-16 -72v-1v-30zM833 209v-30q0 -75 -39 -131t-109 -56h-15v0q-70 0 -108.5 56t-38.5 131v30q0 76 38.5 131.5t108.5 55.5h16q70 0 108.5 -56t38.5 -131zM610 179v-1q1 -42 16 -72.5t47 -30.5h10q32 0 47 30.5t16 72.5v1v31q-1 42 -16 72t-47 32h-10
q-32 -2 -47 -32t-16 -72v-1v-30zM1195 209v-30q0 -75 -39 -131t-109 -56h-15v0q-70 0 -108.5 56t-38.5 131v30q0 76 38.5 131.5t108.5 55.5h16q70 0 108.5 -56t38.5 -131zM972 179v-1q1 -42 16 -72.5t47 -30.5h10q32 0 47 30.5t16 72.5v1v31q-1 42 -16 72t-47 32h-10
q-32 -2 -47 -32t-16 -72v-1v-30z" />
    <glyph glyph-name="guilsinglleft" unicode="&#x2039;" horiz-adv-x="325" 
d="M288 41h-108l-143 231l143 231h108l-121 -231z" />
    <glyph glyph-name="guilsinglright" unicode="&#x203a;" horiz-adv-x="325" 
d="M288 272l-143 -231h-108l121 231l-121 231h108z" />
    <glyph glyph-name="fraction" unicode="&#x2044;" horiz-adv-x="160" 
d="M253 733l-265 -733h-81l265 733h81z" />
    <glyph glyph-name="Euro" unicode="&#x20ac;" horiz-adv-x="597" 
d="M525 149l40 -114q-88 -45 -157 -45h-19q-111 0 -185 80t-87 198h-57v60h54v88h-54v60h57q13 117 86.5 197.5t185.5 81.5h14q79 -3 152 -35l-41 -117q-63 34 -115 34h-7q-55 0 -94.5 -46t-50.5 -115h254l-16 -60h-241v-88h257l-16 -60h-239q8 -74 44.5 -117t101.5 -43h13
q52 0 120 41z" />
    <glyph glyph-name="trademark" unicode="&#x2122;" horiz-adv-x="831" 
d="M175 720q23 11 57 11h81v-65h-87q-7 0 -11 -2q-2 -1 -3 -3q0 -1 -0.5 -3t-0.5 -3v-301h-74v300v6l-3 3q-3 3 -14 3h-79l-1 65h74q45 -2 61 -11zM769 731v-377h-75v277l-3 -28l-78 -228h-64l-77 226l-3 29v-276h-74v377h101l85 -264l85 261l1 3h102z" />
    <glyph glyph-name="minus" unicode="&#x2212;" 
d="M440 223h-380v89h380v-89z" />
    <glyph glyph-name="fi" unicode="&#xfb01;" horiz-adv-x="724" 
d="M643 539h1l-1 -1v-538h-147v435h-257q0 -21 1 -435h-147l1 435h-74v104h74v11q0 93 47.5 145.5t124.5 60.5q84 9 143 -15l-2 -116q-43 33 -99 22q-69 -12 -69 -94v-14h402h2zM567 610q-34 0 -57 23t-23 56t23.5 56t56.5 23h6q32 -1 55 -24t23 -55t-22.5 -55t-54.5 -24h-7
z" />
    <glyph glyph-name="fl" unicode="&#xfb02;" horiz-adv-x="739" 
d="M511 732l142 24v-756h-146v626q-19 14 -76 20.5t-86 0.5q-81 -15 -81 -94v-14h127l-1 -104h-126q0 -21 1 -435h-147l1 435h-74v104h74v11q0 91 52.5 143.5t131.5 62.5q105 13 208 -24z" />
    </font>
</defs>
</svg>
